<?xml version="1.0" encoding="utf-8"?>
<!-- Generator: Adobe Illustrator 19.2.1, SVG Export Plug-In . SVG Version: 6.00 Build 0)  -->
<svg version="1.1" id="Layer_1" xmlns="http://www.w3.org/2000/svg" xmlns:xlink="http://www.w3.org/1999/xlink" x="0px" y="0px"
	 viewBox="0 0 31.7 31.7" style="enable-background:new 0 0 31.7 31.7;" xml:space="preserve">
<style type="text/css">
	.st0{fill:#5BB6B1;}
</style>
<g id="Mouse_1_">
	<g>
		<path class="st0" d="M24.1,19.5L17.7,13c-2.6-2.6-6.8-2.8-9.6-0.5c-0.3-0.5-0.5-1.3-0.3-2c0.3-1.1,0.7-1.4,2.3-2
			c2.6-0.9,3.5-2.2,4-3.4c0.7-1.5,0.6-3.1,0-4.7c0-0.3-0.4-0.5-0.7-0.4c-0.4,0.1-0.5,0.5-0.5,0.9c0.6,2.6,0.7,5.4-3.2,6.5
			C7.5,8,6.8,9.2,6.5,10.3c-0.3,1.1,0,2.3,0.7,3.2c-2.4,2.8-2.2,7,0.4,9.7l6.4,6.4c2.8,2.8,7.3,2.8,10.1,0S26.9,22.3,24.1,19.5z
			 M8.5,22.2c-2.1-2.1-2.3-5.5-0.4-7.8l4.5,4.6l0.9-0.9l-4.6-4.6c2.3-1.8,5.7-1.7,7.8,0.4l0.5,0.5l-8.3,8.3L8.5,22.2z M23.2,28.7
			c-2.3,2.3-6,2.3-8.3,0l-5.1-5.1l8.3-8.3l5.1,5.1C25.5,22.7,25.5,26.4,23.2,28.7z M19.5,25c-0.5,0.5-0.5,1.3,0,1.8s1.3,0.5,1.8,0
			s0.5-1.3,0-1.8C20.8,24.5,20,24.5,19.5,25z"/>
	</g>
</g>
</svg>
