<svg id="Layer_1" data-name="Layer 1" xmlns="http://www.w3.org/2000/svg" viewBox="0 0 20 20"><title>icon-phone--dark</title><g id="Phone_1_2x.png" data-name="Phone 1@2x.png"><path d="M22.65,18.55h0a1.36,1.36,0,0,0-.4-1A1.34,1.34,0,0,0,22,17.4l-3.85-3a1.36,1.36,0,0,0-1-.4,1.34,1.34,0,0,0-.82.28L15.3,15.37h0a0.9,0.9,0,0,1-1.42-.08l0,0A17.36,17.36,0,0,1,10,11.45l0,0A0.91,0.91,0,0,1,9.94,10h0L11,8.92a1.34,1.34,0,0,0,.28-0.82,1.36,1.36,0,0,0-.4-1l-3-3.85A1.39,1.39,0,0,0,7.71,3a1.36,1.36,0,0,0-1-.4c-1.82,0-4.09,2.14-4.09,4.77a4.75,4.75,0,0,0,.46,2v0A28.88,28.88,0,0,0,15.82,22.2h0a4.75,4.75,0,0,0,2,.46c2.64,0,4.77-2.27,4.77-4.09h0Z" transform="translate(-2.65 -2.65)" style="fill:#666"/></g></svg>