<svg id="Layer_1" data-name="Layer 1" xmlns="http://www.w3.org/2000/svg" viewBox="0 0 21.38 21.75"><title>log-in</title><g id="_Group_" data-name="&lt;Group&gt;"><path id="_Path_" data-name="&lt;Path&gt;" d="M18.65,14.44l-0.44-.09c-0.25.88-1.85,1.56-3.78,1.56s-3.42-.63-3.75-1.47A8.27,8.27,0,0,0,4,22.94c10.55,3.24,21.36,0,21.36,0A8.27,8.27,0,0,0,18.65,14.44Z" transform="translate(-3.98 -2.63)" style="fill:#34404d"/><path id="_Path_2" data-name="&lt;Path&gt;" d="M19.59,8.37c0-4.22-2.2-5.74-4.92-5.74S9.75,4.15,9.75,8.37c0,3.17,2.2,5.74,4.92,5.74S19.59,11.54,19.59,8.37Z" transform="translate(-3.98 -2.63)" style="fill:#34404d"/></g></svg>