<svg id="Layer_1" data-name="Layer 1" xmlns="http://www.w3.org/2000/svg" viewBox="0 0 135 74.05"><title>vitality-logo</title><g id="_Group_" data-name="&lt;Group&gt;"><path id="_Path_" data-name="&lt;Path&gt;" d="M29.94,36.25a4.94,4.94,0,0,0-3.88-4.74C20.53,37.77,20,48,19.62,51.44c-0.19,4.06,3.87,4.17,3.87,4.17,4.68-1.15,4.05-4.76,4.05-4.76a1.46,1.46,0,0,1-.46-1.25C27.08,48.66,29.94,37.2,29.94,36.25Z" style="fill:#fff"/><path id="_Path_2" data-name="&lt;Path&gt;" d="M92,31.87c1,0,3.13-1.66,3.13-3,0-.62-2.35-5.69-5.53-5.69a2.58,2.58,0,0,0-2.21,2.09C87.39,26.79,88.72,31.87,92,31.87Z" style="fill:#fff"/><path id="_Path_3" data-name="&lt;Path&gt;" d="M31.23,28.24c1,0,2.75-.65,2.75-2,0-.62-2.51-6.65-5.69-6.65a2.58,2.58,0,0,0-2.21,2.09C26.08,23.22,26.43,28.24,31.23,28.24Z" style="fill:#fff"/><path id="_Path_4" data-name="&lt;Path&gt;" d="M41.07,0.56C39.76-.92,23-2.81,8.54,42.77a0.32,0.32,0,0,1-.61,0c-2.27-12.1-1.27-25.81-1.56-28C5.65,9.23,1,11,1,11-1.1,15.34.24,50.54,3.75,55.13c2.09,0.89,8.07.58,9.34-.84C13.09,54.29,21.47,9.78,41.07.56Z" style="fill:#fff"/><path id="_Path_5" data-name="&lt;Path&gt;" d="M131,33.12a0.93,0.93,0,0,0-.69.54c-5.07,9.15-9.66,16.44-13.56,16.74a1.33,1.33,0,0,1-1.47-1.3h0c-0.48-3.52,2.82-12.21,2.59-14.69-0.09-.92-0.55-0.82-1.14-1.19a4.25,4.25,0,0,0-.62.65,0.34,0.34,0,0,1-.38.1,37.92,37.92,0,0,0-7-1.7c1.8-5.05,5.55-15.65,5.55-16.6,0-2.37-1.74-3.17-4.68-4-4.74,8.35-7.75,19.71-8,20.56-1.53,1.38-3.85.11-4.3,2.81,1.15,1.22,3.31,2.22,3.31,3.17S99,43,99.64,55.61c0.83,0.32,4.24-3.32,4.35-4.41,0.94-9.78,3.42-13.29,3.42-13.29a35.61,35.61,0,0,0,6.19-.33,0.08,0.08,0,0,1,.09.12c-0.55,1.12-3.88,8-3.9,11.14,0,4.11,1.31,6.43,4.73,6.74a9.78,9.78,0,0,0,2.18,0,16.29,16.29,0,0,0,10.2-5.8,0.29,0.29,0,0,1,.5.27c-5,17.9-14.7,22.37-18.78,23.35,0.14,1.25,7.19.89,12.11-3.28a39.79,39.79,0,0,0,11.6-18c0.54-1.83,1.06-3.72,1.46-5.65A57.26,57.26,0,0,0,135,35.89C135,35.29,131.7,33.12,131,33.12Z" style="fill:#fff"/><path id="_Path_6" data-name="&lt;Path&gt;" d="M97.47,53.19H97.29c-5.25,0,.92-18.52-6.48-17.52A14.4,14.4,0,0,0,87,37.17a0.84,0.84,0,0,0-.33.31,73.89,73.89,0,0,1-9.18,12,0.85,0.85,0,0,1-1.43-.31c-2.7-8.69,9.17-34.27,9.34-34.83,0.9-2.88-3-4.25-5-4.46-4.29,6.08-11.5,25.37-10.78,40.72a0.47,0.47,0,0,1-.29.46c-1.21.5-5.6,2.1-5.08-1.49,0.13-.94,2.21-6.45,2.21-7.4,0-.62-2.63-4.17-4.61-4.17-0.81,0-8.26,9.41-10.77,11.61a0.85,0.85,0,0,1-1.33-.29C48.43,46.3,51.7,38.11,61,35a24.13,24.13,0,0,0,2.39-2.37,0.88,0.88,0,0,0,.11-0.73,1.47,1.47,0,0,0-.71-0.74h0c-5.19-2.4-16.74-2.06-18.71-2.33,1.45-6.62,6-17.23,6.12-18.26,0.19-1.59-1.37-3.14-4.58-4A142.65,142.65,0,0,0,36,28.75c-0.86.9-2.15,0.54-3,3.08,0,1.15,1.87,2.43,1.87,3.47s-1.77,6.57-1.09,20.34c2.56,0.15,5.32-3.9,5.5-5.08A112.08,112.08,0,0,1,42.51,35a80,80,0,0,0,10.25-.66,0.1,0.1,0,0,1,.08.18c-5,4.2-9.68,8.27-9.57,16.12,0,3.18,3.41,5,5.35,5,3.33,0,6.75-3,8.38-4.82a0.55,0.55,0,0,1,1,.26,5.36,5.36,0,0,0,5.41,4.55c2.23,0,5.52-2.1,6.78-2.79a0.26,0.26,0,0,1,.33.06c0.84,1,2.53,2.74,4.14,2.74,4.82,0,9.71-7,12.43-11.34a0.5,0.5,0,0,1,.91.16c1,4.64,1,11.19,5.67,11.19a13.87,13.87,0,0,0,4.25-.82A0.85,0.85,0,0,0,97.47,53.19Z" style="fill:#fff"/></g></svg>