<svg id="youtube" xmlns="http://www.w3.org/2000/svg" viewBox="0 0 22 22"><title>youtube</title><path id="_Compound_Path_" data-name="&lt;Compound Path&gt;" d="M21.14,6A2.65,2.65,0,0,0,18.87,4,70.58,70.58,0,0,0,11,3.68,70.6,70.6,0,0,0,3.14,4,2.65,2.65,0,0,0,.87,6,22.47,22.47,0,0,0,.5,11a22.46,22.46,0,0,0,.37,5A2.65,2.65,0,0,0,3.14,18a70.58,70.58,0,0,0,7.86.29A70.56,70.56,0,0,0,18.86,18,2.65,2.65,0,0,0,21.13,16a22.48,22.48,0,0,0,.37-5,22.45,22.45,0,0,0-.36-5h0ZM8.29,14.26V7.32L15,10.8,8.29,14.26h0Zm0,0" style="fill:#5BB6B1;fill-rule:evenodd"/></svg>