<svg xmlns="http://www.w3.org/2000/svg" viewBox="0 0 22 22"><title>instagram</title><path d="M14.7 10.8a3.76 3.76 0 0 1-3.7 3.7 3.76 3.76 0 0 1-3.7-3.7 5.07 5.07 0 0 1 .2-1.3H3V15a4 4 0 0 0 4 4h8a4 4 0 0 0 4-4V9.5h-4.5a5.07 5.07 0 0 1 .2 1.3z" fill="#666"/><circle cx="11" cy="10.8" r="2.2" fill="#666"/><path d="M15 3H7.2v4.2h-.9V3.1a1.88 1.88 0 0 0-.8.2v3.9h-.9V3.8A3.89 3.89 0 0 0 3 7v1.2h5.4a3.62 3.62 0 0 1 5.12-.08l.08.08H19V7a4 4 0 0 0-4-4zm1.8 3.8a.43.43 0 0 1-.4.4H15a.37.37 0 0 1-.4-.4V5.4A.43.43 0 0 1 15 5h1.3a.37.37 0 0 1 .4.4v1.4h.1z" fill="#666"/></svg>