<svg xmlns="http://www.w3.org/2000/svg" viewBox="0 0 22 22"><title>twitter</title><path data-name="&amp;lt;Path&amp;gt;" d="M17.36 7.74v.42A9.34 9.34 0 0 1 3 16a6.93 6.93 0 0 0 .78 0 6.58 6.58 0 0 0 4.08-1.4 3.29 3.29 0 0 1-3.07-2.28 3.37 3.37 0 0 0 .62.06 3.31 3.31 0 0 0 .86-.12 3.29 3.29 0 0 1-2.63-3.15 3.28 3.28 0 0 0 1.49.41 3.29 3.29 0 0 1-1-4.38 9.32 9.32 0 0 0 6.77 3.43 3.29 3.29 0 0 1 5.59-3 6.55 6.55 0 0 0 2.08-.8 3.29 3.29 0 0 1-1.44 1.82A6.55 6.55 0 0 0 19 6a6.66 6.66 0 0 1-1.64 1.74z" fill="#666"/></svg>