<svg xmlns="http://www.w3.org/2000/svg" viewBox="0 0 22 22"><title>youtube</title><path data-name="&amp;lt;Compound Path&amp;gt;" d="M21.14 6a2.65 2.65 0 0 0-2.27-2A70.58 70.58 0 0 0 11 3.68 70.6 70.6 0 0 0 3.14 4 2.65 2.65 0 0 0 .87 6a22.47 22.47 0 0 0-.37 5 22.46 22.46 0 0 0 .37 5 2.65 2.65 0 0 0 2.27 2 70.58 70.58 0 0 0 7.86.29 70.56 70.56 0 0 0 7.86-.29 2.65 2.65 0 0 0 2.27-2 22.48 22.48 0 0 0 .37-5 22.45 22.45 0 0 0-.36-5zM8.29 14.26V7.32L15 10.8l-6.71 3.46zm0 0" fill="#666" fill-rule="evenodd"/></svg>