<svg id="Layer_1" xmlns="http://www.w3.org/2000/svg" viewBox="0 0 31.7 31.7"><style>.st0{fill:#5bb6b1}</style><path class="st0" d="M24.1 19.5L17.7 13c-2.6-2.6-6.8-2.8-9.6-.5-.3-.5-.5-1.3-.3-2 .3-1.1.7-1.4 2.3-2 2.6-.9 3.5-2.2 4-3.4.7-1.5.6-3.1 0-4.7 0-.3-.4-.5-.7-.4-.4.1-.5.5-.5.9.6 2.6.7 5.4-3.2 6.5-2.2.6-2.9 1.8-3.2 2.9-.3 1.1 0 2.3.7 3.2-2.4 2.8-2.2 7 .4 9.7l6.4 6.4c2.8 2.8 7.3 2.8 10.1 0s2.8-7.3 0-10.1zM8.5 22.2c-2.1-2.1-2.3-5.5-.4-7.8l4.5 4.6.9-.9-4.6-4.6c2.3-1.8 5.7-1.7 7.8.4l.5.5-8.3 8.3-.4-.5zm14.7 6.5c-2.3 2.3-6 2.3-8.3 0l-5.1-5.1 8.3-8.3 5.1 5.1c2.3 2.3 2.3 6 0 8.3zM19.5 25c-.5.5-.5 1.3 0 1.8s1.3.5 1.8 0 .5-1.3 0-1.8-1.3-.5-1.8 0z" id="Mouse_1_"/></svg>