<?xml version="1.0" encoding="utf-8"?>
<!-- Generator: Adobe Illustrator 21.1.0, SVG Export Plug-In . SVG Version: 6.00 Build 0)  -->
<svg version="1.1" id="Layer_1" xmlns="http://www.w3.org/2000/svg" xmlns:xlink="http://www.w3.org/1999/xlink" x="0px" y="0px"
	 viewBox="0 0 250 250" style="enable-background:new 0 0 250 250;" xml:space="preserve">
<style type="text/css">
	.st0{display:none;}
	.st1{display:inline;}
	.st2{fill:#5BB6B1;stroke:#5BB6B1;stroke-width:0.75;stroke-miterlimit:10;}
	.st3{fill:#5BB6B1;}
	.st4{fill:#5BB6B1;stroke:#5BB6B1;stroke-miterlimit:10;}
	.st5{fill:#5BB6B1;stroke:#5BB6B1;stroke-width:4;stroke-miterlimit:10;}
	.st6{fill:#5BB6B1;stroke:#5BB6B1;stroke-width:2;stroke-miterlimit:10;}
	.st7{display:inline;fill:#5BB6B1;}
	.st8{fill:none;stroke:#5BB6B1;stroke-width:6;stroke-miterlimit:10;}
	.st9{fill:none;stroke:#5BB6B1;stroke-width:7;stroke-miterlimit:10;}
</style>
<g id="Treatment" class="st0">
	<g class="st1">
		<g>
			<path class="st2" d="M127.2,44.4v-2.8h1c1.6,0,3-1.4,3.1-3c0-0.1,0-0.2,0-0.4V24.9c0-5.8-4.2-10.5-9.3-10.5H66.1
				c-5.1,0-9.3,4.7-9.3,10.5v13.3c0,0.1,0,0.3,0,0.4c0.1,1.7,1.4,3,3.1,3h1v3c-7.1,0.7-12.8,3.1-17,7.3c-8.3,8.3-8.2,21-8.2,25.8
				v122.7c0,7.8,5.6,14.2,12.4,14.2h91.8c6.9,0,12.4-6.4,12.4-14.2V77.9c0-5.1,0-18.6-8.3-26.9C139.8,46.7,134.1,44.5,127.2,44.4z
				 M82.6,41.6c1.7,0,3.1-1.4,3.1-3.1c0-1.7-1.4-3.1-3.1-3.1H62.9V24.9c0-2.3,1.4-4.3,3.2-4.3H122c1.7,0,3.2,2,3.2,4.3v10.5H97.4
				c-1.7,0-3.1,1.4-3.1,3.1c0,1.7,1.4,3.1,3.1,3.1H121v2.8H67v-2.8C67,41.6,82.6,41.6,82.6,41.6z M48.2,56.2
				c3.8-3.8,9.3-5.7,16.6-5.7h61.6c5.6,0,10.1,1.6,13.3,4.8c5.2,5.2,6.3,13.7,6.5,19.1H41.9C42,69.3,43,61.4,48.2,56.2z M41.9,180
				h12.2c1.7,0,3.1-1.4,3.1-3.1c0-1.7-1.4-3.1-3.1-3.1H41.9V89.6H119c1.7,0,3.1-1.4,3.1-3.1s-1.4-3.1-3.1-3.1H41.9v-2.9h104.3v2.9
				h-12.5c-1.7,0-3.1,1.4-3.1,3.1s1.4,3.1,3.1,3.1h12.5v84.2H68.9c-1.7,0-3.1,1.4-3.1,3.1c0,1.7,1.4,3.1,3.1,3.1h77.3v3.5H41.9V180z
				 M139.9,208.3H48.1c-3.4,0-6.3-3.7-6.3-8v-10.6h104.3v10.6C146.2,204.6,143.3,208.3,139.9,208.3z"/>
			<path class="st2" d="M212.1,155.4c-2.5-4.9-6.7-8.5-11.9-10.2l-1.5-0.5c-2.1-0.7-4.2-1-6.4-1c-8.9,0-16.8,5.7-19.5,14.2
				l-16.5,50.4c-3.5,10.8,2.4,22.4,13.1,25.9l1.5,0.5c2.1,0.7,4.2,1,6.4,1c8.9,0,16.8-5.7,19.5-14.2l16.5-50.4
				C215,165.8,214.6,160.3,212.1,155.4z M190.9,219.5c-1.9,5.9-7.4,9.9-13.7,9.9c-1.5,0-3-0.2-4.5-0.7l-1.5-0.5
				c-7.5-2.5-11.7-10.6-9.2-18.2l7.3-22.3l28.9,9.5L190.9,219.5z M207.4,169.1l-7.3,22.2l-28.9-9.5l7.3-22.2
				c1.9-5.9,7.4-9.9,13.7-9.9c1.5,0,3,0.2,4.5,0.7l1.5,0.5c3.7,1.2,6.6,3.7,8.4,7.2C208.3,161.6,208.6,165.5,207.4,169.1z"/>
			<path class="st2" d="M107.9,159.2c0.1,0,0.3,0,0.4,0l0,0l0,0c0.2,0,0.5,0,0.7-0.1h0.1c0.2-0.1,0.5-0.2,0.7-0.3c0,0,0,0,0.1,0
				c0,0,0,0,0.1,0c0.2-0.1,0.3-0.2,0.5-0.3l0,0c0.1-0.1,0.3-0.3,0.4-0.4c0,0,0-0.1,0.1-0.1c0.1-0.1,0.2-0.2,0.2-0.4
				c0,0,0-0.1,0.1-0.1c0,0,0-0.1,0.1-0.1c0.4-1,10.4-25.4,2.5-39c-7.9-13.7-33.4-16.1-34.5-16.2c-1.3-0.1-2.5,0.6-3.1,1.8
				c-0.5,1-11.2,24.3-3.3,38C80.7,155.6,106.8,159.1,107.9,159.2z M80.8,108.6c7.7,1,22.8,4.7,27.5,12.9c4,7,1.7,19.2-0.7,27.4
				l-15.4-26.6c-0.9-1.5-2.7-2-4.2-1.1s-2,2.7-1.1,4.2l15.4,26.6c-8.3-2-20.1-6.1-24.1-13.1C73.4,130.7,77.8,115.7,80.8,108.6z"/>
		</g>
	</g>
</g>
<g id="Cancer_cover">
	<g id="XMLID_389_">
		<path id="XMLID_414_" class="st3" d="M99.8,125c0-13.9,11.3-25.2,25.2-25.2s25.2,11.3,25.2,25.2s-11.3,25.2-25.2,25.2
			S99.8,138.9,99.8,125"/>
		<path id="XMLID_413_" class="st3" d="M116.6,83c0-4.6,3.8-8.4,8.4-8.4c4.6,0,8.4,3.8,8.4,8.4s-3.8,8.4-8.4,8.4
			C120.4,91.4,116.6,87.6,116.6,83"/>
		<path id="XMLID_412_" class="st3" d="M158.6,125c0-4.6,3.8-8.4,8.4-8.4c4.6,0,8.4,3.8,8.4,8.4c0,4.6-3.8,8.4-8.4,8.4
			C162.4,133.4,158.6,129.6,158.6,125"/>
		<path id="XMLID_411_" class="st3" d="M74.5,125c0-4.6,3.8-8.4,8.4-8.4s8.4,3.8,8.4,8.4c0,4.6-3.8,8.4-8.4,8.4S74.5,129.6,74.5,125
			"/>
		<path id="XMLID_410_" class="st3" d="M116.6,167c0-4.6,3.8-8.4,8.4-8.4c4.6,0,8.4,3.8,8.4,8.4c0,4.6-3.8,8.4-8.4,8.4
			C120.4,175.4,116.6,171.6,116.6,167"/>
		<path id="XMLID_409_" class="st3" d="M183.9,125c0-4.6,3.8-8.4,8.4-8.4c4.6,0,8.4,3.8,8.4,8.4c0,4.6-3.8,8.4-8.4,8.4
			C187.6,133.4,183.9,129.6,183.9,125"/>
		<path id="XMLID_408_" class="st3" d="M116.6,57.8c0-4.6,3.8-8.4,8.4-8.4c4.6,0,8.4,3.8,8.4,8.4s-3.8,8.4-8.4,8.4
			C120.4,66.2,116.6,62.5,116.6,57.8"/>
		<path id="XMLID_407_" class="st3" d="M116.6,192.2c0-4.6,3.8-8.4,8.4-8.4c4.6,0,8.4,3.8,8.4,8.4c0,4.6-3.8,8.4-8.4,8.4
			C120.4,200.6,116.6,196.8,116.6,192.2"/>
		<path id="XMLID_406_" class="st3" d="M49.3,125c0-4.6,3.8-8.4,8.4-8.4s8.4,3.8,8.4,8.4c0,4.6-3.8,8.4-8.4,8.4S49.3,129.6,49.3,125
			"/>
		<path id="XMLID_405_" class="st3" d="M82.9,91.4c0-4.6,3.8-8.4,8.4-8.4s8.4,3.8,8.4,8.4s-3.8,8.4-8.4,8.4
			C86.7,99.8,82.9,96,82.9,91.4"/>
		<path id="XMLID_404_" class="st3" d="M150.2,91.4c0-4.6,3.8-8.4,8.4-8.4c4.6,0,8.4,3.8,8.4,8.4s-3.8,8.4-8.4,8.4
			S150.2,96,150.2,91.4"/>
		<path id="XMLID_403_" class="st3" d="M82.9,158.6c0-4.6,3.8-8.4,8.4-8.4s8.4,3.8,8.4,8.4S96,167,91.4,167
			C86.7,167,82.9,163.2,82.9,158.6"/>
		<path id="XMLID_402_" class="st3" d="M150.2,158.6c0-4.6,3.8-8.4,8.4-8.4c4.6,0,8.4,3.8,8.4,8.4s-3.8,8.4-8.4,8.4
			S150.2,163.2,150.2,158.6"/>
		<path id="XMLID_401_" class="st3" d="M116.6,32.6c0-4.6,3.8-8.4,8.4-8.4c4.6,0,8.4,3.8,8.4,8.4S129.6,41,125,41
			C120.4,41,116.6,37.3,116.6,32.6"/>
		<path id="XMLID_392_" class="st3" d="M24.1,125c0-4.6,3.8-8.4,8.4-8.4s8.4,3.8,8.4,8.4c0,4.6-3.8,8.4-8.4,8.4
			C27.8,133.4,24.1,129.6,24.1,125"/>
		<path id="XMLID_391_" class="st3" d="M209.1,125c0-4.6,3.8-8.4,8.4-8.4c4.6,0,8.4,3.8,8.4,8.4c0,4.6-3.8,8.4-8.4,8.4
			C212.9,133.4,209.1,129.6,209.1,125"/>
		<path id="XMLID_390_" class="st3" d="M116.6,217.4c0-4.6,3.8-8.4,8.4-8.4c4.6,0,8.4,3.8,8.4,8.4c0,4.6-3.8,8.4-8.4,8.4
			C120.4,225.8,116.6,222,116.6,217.4"/>
	</g>
</g>
<g id="Outpatient_Cover" class="st0">
	<g class="st1">
		<path class="st3" d="M235.1,150.7h-0.8c-1.9-11.4-15.7-20-32.9-20H92c-0.3-10.9-5.1-18.2-11.7-18.2h-39V89.7c0-2.5-2-4.6-4.6-4.6
			H14.9c-2.5,0-4.6,2-4.6,4.6v132.9c0,2.5,2,4.6,4.6,4.6h21.8c2.5,0,4.6-2,4.6-4.6v-41h167.4v41c0,2.5,2,4.6,4.6,4.6h21.8
			c2.5,0,4.6-2,4.6-4.6v-67.3C239.7,152.8,237.6,150.7,235.1,150.7z M225,150.7H41.3v-11.5c0.7,0.4,1.4,0.6,2.3,0.6h157.9
			C212.6,139.8,222.6,144.7,225,150.7z M80.1,121.6c0.9,0,2.6,3.6,2.8,9.1H43.5c-0.8,0-1.6,0.3-2.3,0.7v-9.8
			C41.2,121.6,80.1,121.6,80.1,121.6z M230.6,218.1h-12.7v-41c0-2.5-2-4.6-4.6-4.6H36.7c-2.5,0-4.6,2-4.6,4.6v41H19.4V94.3h12.7v61
			c0,2.5,2,4.6,4.6,4.6h193.8v58.2H230.6z"/>
		<path class="st3" d="M183,98.5h14.5c2.1,0,3.8-1.7,3.8-3.8v-23h23c2.1,0,3.8-1.7,3.8-3.8V53.4c0-2.1-1.7-3.8-3.8-3.8h-23v-23
			c0-2.1-1.7-3.8-3.8-3.8H183c-2.1,0-3.8,1.7-3.8,3.8v23h-23c-2.1,0-3.8,1.7-3.8,3.8v14.5c0,2.1,1.7,3.8,3.8,3.8h23v23
			C179.2,96.8,180.9,98.5,183,98.5z M158.5,65.5v-9.7h23c2.1,0,3.8-1.7,3.8-3.8V29h9.7v23c0,2.1,1.7,3.8,3.8,3.8h23v9.7h-23
			c-2.1,0-3.8,1.7-3.8,3.8v23h-9.7v-23c0-2.1-1.7-3.8-3.8-3.8H158.5z"/>
	</g>
</g>
<g id="In_and_out_patient" class="st0">
	<g class="st1">
		<path class="st3" d="M12.8,132.9c0-2.9,2.4-5.3,5.3-5.3s5.3,2.4,5.3,5.3v87.6H12.8V132.9L12.8,132.9z M32.3,220.5v-46
			c61.8,0,123.6,0,185.5,0v46h-10.6v-35.4H42.9v35.4H32.3L32.3,220.5L32.3,220.5z M226.6,94.7c0-2.9,2.4-5.3,5.3-5.3
			c2.9,0,5.3,2.4,5.3,5.3v125.8h-10.6V94.7L226.6,94.7z M169.2,148.1h-53v-23h-7.1v23H102v-23H51.7c-10.7,0-19.4,8.7-19.4,19.4v21.2
			h185.5v-58.1c0-3.3-4.2-4-6.3-1.9C197.3,119.9,183.2,134,169.2,148.1L169.2,148.1L169.2,148.1z"/>
		<path class="st3" d="M200.9,57.2c-9.3,0-16.8,7.5-16.8,16.8s7.5,16.8,16.8,16.8s16.8-7.5,16.8-16.8S210.2,57.2,200.9,57.2
			L200.9,57.2L200.9,57.2z"/>
		<path class="st3" d="M152.1,125.1l24.1-24.1c7.9-7.9,20.8-7.9,28.7,0c0.2,0.2,0.4,0.4,0.6,0.6L182,125.1l0,0L166.2,141h-43v-15.9
			H152.1L152.1,125.1L152.1,125.1z"/>
		<path class="st3" d="M113.2,36.6H46.7c-4,0-7.3,3.3-7.3,7.3v44.8c0,4,3.3,7.3,7.3,7.3h66.6c4,0,7.3-3.3,7.3-7.3V43.9
			C120.6,39.9,117.3,36.6,113.2,36.6L113.2,36.6z M46.7,29.5h66.6c7.9,0,14.4,6.5,14.4,14.4v44.8c0,7.9-6.5,14.4-14.4,14.4H46.7
			c-7.9,0-14.4-6.5-14.4-14.4V43.9C32.3,36,38.7,29.5,46.7,29.5L46.7,29.5z"/>
		<path class="st3" d="M46.1,69.7h9.6l4.4-5.1c1-1.1,2.6-1.2,3.8-0.3c0.2,0.2,0.4,0.5,0.6,0.7l0,0l3.8,6.9l7.8-25.6
			c0.4-1.4,1.9-2.2,3.3-1.8c0.9,0.3,1.6,1,1.8,1.9l0,0L88,74.5l5-18.4c0.4-1.4,1.8-2.3,3.2-1.9c0.8,0.2,1.4,0.8,1.7,1.4l0,0
			l6.5,14.1h9.1V75h-10.8l0,0c-1,0-2-0.6-2.4-1.5l-4.2-9l-5.7,21.3l0,0c-0.2,0.9-1,1.7-1.9,1.9c-1.4,0.3-2.9-0.5-3.2-1.9l-7-28.6
			l-6.8,22.1c-0.2,0.7-0.6,1.3-1.3,1.7c-1.3,0.7-2.9,0.2-3.6-1.1l-5-9.1l-2.6,3c-0.5,0.7-1.3,1.1-2.2,1.1H46.1V69.7L46.1,69.7z"/>
	</g>
</g>
<g id="Vitality_GP" class="st0">
	<g class="st1">
		<g>
			<path class="st4" d="M88.2,132.4c-36.6,0-55.2-23.5-55.2-69.9c0-36.2,21.2-44.1,29.4-44.1c2,0,3.7,1.6,3.7,3.7s-1.6,3.7-3.7,3.7
				c-6.1,0-22.1,6.6-22.1,36.8c0,42.1,15.6,62.5,47.8,62.5c2,0,3.7,1.6,3.7,3.7C91.9,130.7,90.3,132.4,88.2,132.4z"/>
		</g>
		<g>
			<path class="st4" d="M154.4,235.3H125c-22.3,0-40.5-18.2-40.5-40.5v-66.2c0-2,1.6-3.7,3.7-3.7c32.2,0,47.8-20.5,47.8-62.5
				c0-30.2-15.9-36.8-22.1-36.8c-2,0-3.7-1.6-3.7-3.7s1.6-3.7,3.7-3.7c8.2,0,29.4,7.9,29.4,44.1c0,44.8-17.3,68.3-51.5,69.8v62.6
				c0,18.3,14.8,33.1,33.1,33.1h29.4c18.3,0,33.1-14.8,33.1-33.1V191c0-2,1.6-3.7,3.7-3.7c2,0,3.7,1.6,3.7,3.7v3.7
				C194.9,217.2,176.7,235.3,154.4,235.3z"/>
		</g>
		<g>
			<path class="st4" d="M191.2,176.5c-6.1,0-11-4.9-11-11s4.9-11,11-11s11,4.9,11,11C202.2,171.5,197.3,176.5,191.2,176.5z
				 M191.2,161.8c-2,0-3.7,1.7-3.7,3.7s1.6,3.7,3.7,3.7c2,0,3.7-1.7,3.7-3.7C194.9,163.4,193.2,161.8,191.2,161.8z"/>
		</g>
		<g>
			<path class="st4" d="M191.2,191.2c-14.2,0-25.7-11.6-25.7-25.7c0-14.2,11.6-25.7,25.7-25.7c14.2,0,25.7,11.6,25.7,25.7
				C216.9,179.7,205.4,191.2,191.2,191.2z M191.2,147.1c-10.1,0-18.4,8.2-18.4,18.4s8.3,18.4,18.4,18.4c10.1,0,18.4-8.2,18.4-18.4
				S201.3,147.1,191.2,147.1z"/>
		</g>
		<g>
			<circle class="st4" cx="62.5" cy="22" r="7.4"/>
		</g>
		<g>
			<circle class="st4" cx="114" cy="22" r="7.4"/>
		</g>
	</g>
</g>
<g id="Scans" class="st0">
	<g class="st1">
		<path class="st5" d="M218.4,40.9H31.6c-7.4,0-13.5,6-13.5,13.5v108.1c0,7.4,6,13.5,13.5,13.5h186.8c7.4,0,13.5-6,13.5-13.5V54.3
			C231.9,46.9,225.8,40.9,218.4,40.9z M227.2,162.4c0,4.9-3.9,8.8-8.8,8.8H31.6c-4.9,0-8.8-4-8.8-8.8V54.3c0-4.9,3.9-8.8,8.8-8.8
			h186.8c4.9,0,8.8,3.9,8.8,8.8V162.4z"/>
		<path class="st6" d="M208.8,183.1H41.2c-5.3,0-9.6,4.3-9.6,9.6v6.8c0,5.3,4.3,9.6,9.6,9.6h167.5c5.3,0,9.6-4.3,9.6-9.6v-6.8
			C218.4,187.4,214.1,183.1,208.8,183.1z M213.7,199.5c0,2.7-2.2,5-5,5H41.2c-2.7,0-5-2.2-5-5v-6.8c0-2.7,2.2-5,5-5h167.5
			c2.7,0,5,2.2,5,5V199.5z"/>
		<path class="st4" d="M81.4,80.5c-6.2,0-11.7,3.1-14.7,8.1c-3-5-8.5-8.1-14.8-8.1c-6.8,0-12.7,3.6-15.5,9.5
			c-6.2,13.4,1.7,20.7,17.6,35.3c3,2.8,6.4,5.8,10,9.3c0.7,0.7,1.6,1,2.6,1s1.9-0.4,2.6-1.1c3.6-3.4,6.9-6.5,9.9-9.2
			C95,110.6,103,103.2,96.7,89.9C94.2,84.1,88.2,80.5,81.4,80.5z M76.1,122c-2.8,2.6-6,5.5-9.4,8.8c-3.5-3.3-6.6-6.2-9.5-8.8
			C40.6,106.8,36,102,40.6,92.1c2-4.2,6.3-6.9,11.3-6.9s9.3,2.6,11.3,6.9c0.6,1.3,2,2.2,3.4,2.2c1.5,0,2.8-0.9,3.4-2.2
			c2-4.2,6.3-6.8,11.3-6.8s9.3,2.6,11.3,6.9C97.3,101.8,92.7,106.6,76.1,122z"/>
		<path class="st4" d="M216.2,113.2h-21.9c-0.1,0-0.1,0-0.2,0c-0.2,0-0.3,0.1-0.5,0.1c-0.1,0-0.3,0.1-0.4,0.1
			c-0.1,0.1-0.2,0.2-0.4,0.2c-0.1,0.1-0.2,0.2-0.3,0.3l-0.1,0.1l-5.4,7.3l-6.5-26.8c-0.3-1.2-1.3-2-2.5-2.1s-2.3,0.7-2.7,1.8
			l-9.9,27.8l-5.7-22.7c-0.3-1.1-1.3-2-2.4-2c-1.2-0.1-2.3,0.6-2.7,1.7l-5.5,13.6l-6.5-25.7c-0.3-1.2-1.4-2-2.6-2
			c-1.2,0-2.3,0.8-2.6,2l-6.7,24.3h-26.3c-1.3,0-2.3,1-2.3,2.3s1,2.3,2.3,2.3h27.8c1.2,0,2.3-0.8,2.6-2l5.1-18.6l6.2,24.3
			c0.3,1.1,1.3,1.9,2.4,2c1.2,0.1,2.2-0.6,2.7-1.7l5.4-13.5l5.8,23.2c0.3,1.2,1.3,2,2.5,2c0.1,0,0.1,0,0.1,0c1.1,0,2.2-0.7,2.5-1.8
			l9.8-27.7l5.9,24.5c0.2,1,1.1,1.8,2.1,2s2.1-0.2,2.7-1l7.2-9.7h20.7c1.3,0,2.3-1,2.3-2.3C218.6,114.3,217.5,113.2,216.2,113.2z"/>
	</g>
</g>
<g id="Vitality_Care" class="st0">
	<g class="st1">
		<path class="st3" d="M231.8,199.4l-57.6-37.3c-5.1-3.3-11.2-4.7-17.3-3.9l-58.2,7.4l-19.4-13.7c-4.6-3.4-10.7-3.4-15.3-0.3
			c-5.8-3.9-13.8-2.6-18,3c-2.1,2.8-3,6.3-2.4,9.8c0.5,3.5,2.4,6.6,5.2,8.7l64.8,47.9l0,0l0,0l0,0l0,0c2.3,1.8,5.1,2.7,8,2.7
			c0.6,0,1.2,0,1.8-0.1l51.7-7.1c2.8-0.4,5.6,0.3,8,1.8l25.6,16.6c0.5,0.3,1.1,0.5,1.7,0.5c1,0,2-0.5,2.6-1.4l19.6-30.3
			C233.6,202.2,233.2,200.3,231.8,199.4z M75.6,156.9l15.9,11.3c-0.5,0.4-1,0.7-1.4,1.2c-7.1-4.4-14-8.9-20.2-13.5
			C71.8,155.4,73.9,155.7,75.6,156.9z M209.5,228l-22.9-14.8c-3.6-2.4-8-3.3-12.3-2.7l-51.7,7.1c-1.9,0.3-3.7-0.2-5.2-1.4l0,0l0,0
			l-64.8-48c-1.5-1.1-2.4-2.7-2.7-4.6c-0.3-1.8,0.2-3.7,1.3-5.1c2.3-3.1,6.6-3.7,9.7-1.5c7.7,6,16.7,12.1,26,17.8
			c-0.6,1.9-0.9,3.9-0.6,6c0.5,3.5,2.3,6.6,5.1,8.7c2.8,2.1,6.3,3.1,9.8,2.6L115,190c10.1,4.8,23.1,9.9,31.7,9.9
			c0.8,0,1.5-0.1,2.2-0.2l0,0c0.1,0,0.3,0,0.4,0l0,0l0,0l0,0c5.5-0.8,9.4-6,8.7-11.6c-0.8-5.6-6-9.6-11.6-8.8l-46.4,6.3
			c-1.8,0.3-3.7-0.2-5.1-1.4c-1.5-1.1-2.4-2.8-2.7-4.6c-0.2-1.8,0.2-3.6,1.4-5.1c1.1-1.5,2.8-2.4,4.6-2.7l59.4-7.5
			c4.6-0.6,9.2,0.5,13.1,2.9l54.9,35.5L209.5,228z M147.4,185.6c1.1-0.1,2.1,0.1,3,0.8s1.4,1.6,1.6,2.6c0.3,2.2-1.3,4.2-3.4,4.5l0,0
			l0,0c-4.1,0.7-11.7-1.2-21.6-5.2L147.4,185.6z"/>
		<path class="st3" d="M89.8,92c1.1,0,2.2-0.1,3.3-0.2l58.2-7.4l19.4,13.7c2.3,1.7,5.1,2.6,7.9,2.6c2.6,0,5.2-0.8,7.4-2.3
			c2.2,1.5,4.8,2.3,7.3,2.3c4,0,8-1.8,10.6-5.3c2.1-2.8,3-6.3,2.4-9.8c-0.5-3.5-2.4-6.6-5.2-8.7l-64.8-48l0,0
			c-2.8-2.1-6.3-3.1-9.7-2.6l0,0l0,0l-51.7,7.1c-2.8,0.4-5.6-0.2-8-1.8L41.3,15.1c-1.5-0.9-3.4-0.5-4.3,0.9L17.3,46.3
			c-0.9,1.5-0.5,3.4,0.9,4.3l57.6,37.3C80,90.6,84.9,92,89.8,92z M174.4,93.1l-15.9-11.3c0.5-0.4,1-0.7,1.4-1.2
			c7.1,4.3,13.9,8.9,20.2,13.5C178.2,94.6,176.1,94.3,174.4,93.1z M40.5,22l22.9,14.8c3.6,2.3,8,3.3,12.3,2.7l51.7-7.1
			c1.8-0.3,3.7,0.2,5.2,1.4l0,0l0,0l64.8,48c1.5,1.1,2.5,2.7,2.7,4.6c0.3,1.8-0.2,3.7-1.3,5.2c-2.3,3.1-6.6,3.7-9.7,1.5
			c-0.4-0.3-0.8-0.6-1.2-0.9l0,0l0,0c-7.5-5.7-15.9-11.5-24.7-16.9c0.6-1.9,0.9-3.9,0.6-6c-1-7.2-7.7-12.3-14.9-11.3l-13.8,2
			c-11.2-5.3-25.9-11-34.3-9.7h-0.1c0,0,0,0-0.1,0l0,0c0,0,0,0-0.1,0c-2.7,0.4-5,1.8-6.7,3.9c-1.7,2.2-2.4,4.9-2,7.6
			c0.4,2.7,1.8,5.1,4,6.8c1.8,1.4,4,2.1,6.2,2.1c0.5,0,0.9,0,1.4-0.1l0,0l0,0l46.4-6.3c3.7-0.5,7.3,2.1,7.8,5.9
			c0.2,1.8-0.2,3.6-1.4,5.1c-1.1,1.5-2.7,2.4-4.5,2.7l-59.4,7.5c-4.6,0.6-9.2-0.5-13.1-3L24.3,47.1L40.5,22z M102.6,64.4
			c-2.2,0.3-4.2-1.2-4.5-3.4c-0.1-1.1,0.1-2.1,0.8-3c0.7-0.9,1.6-1.4,2.6-1.6l0,0l0,0c4.1-0.7,11.7,1.2,21.6,5.2L102.6,64.4z"/>
		<path class="st3" d="M119.8,97.7c-8.7-6.7-21.3-6.2-29.3,1.8c-8.7,8.7-8.7,22.8,0,31.5l27.1,27.1c0.6,0.6,1.4,0.9,2.2,0.9
			c0.8,0,1.6-0.3,2.2-0.9l27.1-27.1c4.2-4.2,6.5-9.8,6.5-15.8s-2.3-11.6-6.5-15.8C141.1,91.5,128.6,91,119.8,97.7z M149.3,115.3
			c0,4.3-1.7,8.3-4.7,11.3l-24.8,24.8L95,126.6c-6.2-6.2-6.2-16.4,0-22.6s16.4-6.2,22.6,0c1.2,1.2,3.2,1.2,4.4,0l0,0
			c6.2-6.2,16.4-6.2,22.6,0C147.7,107,149.3,111,149.3,115.3z"/>
		<path class="st3" d="M127.1,106.6c0,1.7,1.4,3.1,3.1,3.1c4.8,0,8.7,3.9,8.7,8.7c0,1.7,1.4,3.1,3.1,3.1c1.7,0,3.1-1.4,3.1-3.1
			c0-8.3-6.7-15-15-15C128.5,103.5,127.1,104.9,127.1,106.6z"/>
	</g>
</g>
<g id="Physiotherpy" class="st0">
	<g class="st1">
		<path class="st2" d="M201.1,152.5h-87.7c-2.4,0-4.6,0.9-6.4,2.5l-31.3,28.2c-0.3,0.3-0.7,0.4-1.1,0.4H38.9
			c-5.7,0-10.3,4.6-10.3,10.3v10.4c0,5.7,4.6,10.3,10.3,10.3h53.7c2.3,0,4.6-0.8,6.4-2.2l2.3-1.8l0,0l0,0l12.6-10.1
			c0.2-0.1,0.4-0.2,0.6-0.2H201c5.3,0,9.6-4.3,9.6-9.6v-28.4C210.6,156.8,206.3,152.5,201.1,152.5z M202.1,190.5c0,0.5-0.4,1-1,1
			h-76.8l2.1-1.7c1.8-1.5,2.1-4.2,0.6-6s-4.2-2.1-6-0.6l-25.2,20.6l-2.2,1.8c-0.3,0.2-0.7,0.4-1.1,0.4H38.9c-0.9,0-1.7-0.8-1.7-1.7
			v-10.4c0-0.9,0.8-1.7,1.7-1.7h35.6c2.5,0,5-0.9,6.9-2.6l31.3-28.2c0.2-0.2,0.4-0.3,0.7-0.3h87.7c0.5,0,1,0.4,1,1L202.1,190.5
			L202.1,190.5z"/>
		<path class="st2" d="M67.4,173.3c14.2,0,25.7-11.5,25.7-25.7s-11.5-25.7-25.7-25.7s-25.7,11.5-25.7,25.7
			C41.7,161.8,53.2,173.3,67.4,173.3z M67.4,130.5c9.4,0,17.1,7.7,17.1,17.1c0,9.4-7.7,17.1-17.1,17.1s-17.1-7.7-17.1-17.1
			C50.2,138.2,57.9,130.5,67.4,130.5z"/>
		<path class="st2" d="M108.4,143.6c3.7,4.2,10,5,14.7,1.9l6.6-4.3c0,0,0,0,0.1,0l0.2-0.1l10-6.5v10.6c0,2.4,1.9,4.3,4.3,4.3
			c2.4,0,4.3-1.9,4.3-4.3v-17.3l10.3-7.3c1.9-1.4,2.4-4.1,1-6s-4.1-2.4-6-1L125,134l-6.7,4.4c-1.1,0.8-2.7,0.6-3.6-0.5l-3.1-3.5
			c-1-1.1-0.9-2.7,0-3.7l41.1-44.5c2.6-2.8,6.3-4.2,10.1-3.7s7.1,2.7,8.9,6c7.6,13.7,12.7,30.4,15.8,51.2c0.3,2.3,2.5,3.9,4.9,3.6
			c2.3-0.3,4-2.5,3.6-4.9c-3.2-21.8-8.7-39.5-16.8-54.1c-3.2-5.7-8.9-9.6-15.4-10.4s-13,1.6-17.4,6.4l-41.1,44.5
			c-4,4.3-4,10.9-0.1,15.2L108.4,143.6z"/>
		<path class="st2" d="M140.9,70.3c14.3,0,25.9-11,27.1-25c5.5-2.6,9.3-8.2,9.3-14.6c0-9-7.3-16.3-16.3-16.3c-3.6,0-7,1.2-9.8,3.3
			c-3.3-1.4-6.8-2.2-10.4-2.2c-15.1,0-27.3,12.3-27.3,27.3C113.6,58,125.8,70.3,140.9,70.3z M140.9,24.2c3.1,0,6.1,0.8,9,2.4
			c2,1.1,4.5,0.4,5.7-1.5c0.1-0.1,0.2-0.1,0.3-0.2c1.4-1.3,3.2-2,5.1-2c4.2,0,7.7,3.4,7.7,7.7c0,4.7-4.5,8.3-8.9,7.6
			c-2.4-0.4-4.5,1.2-4.9,3.6c-0.4,2.3,1.2,4.5,3.6,4.9c0.3,0,0.6,0,0.8,0.1c-1.8,8.5-9.3,14.9-18.4,14.9c-10.3,0-18.8-8.4-18.8-18.8
			C122.1,32.6,130.5,24.2,140.9,24.2z"/>
	</g>
</g>
<g id="out_patient_surgery" class="st0">
	<path class="st7" d="M211.4,155.9h-39.3v-32.5h39c2.7,0,4.9-2.2,4.9-4.9c0-2.7-2.2-4.9-4.9-4.9h-43.9c-2.1,0-3.9,1.4-4.6,3.3H96.1
		c-13.6,0-24.6,11.1-24.6,24.8c0,5.3,1.8,10.1,4.8,14c-0.5-0.1-1.1-0.2-1.7-0.1c-1.2-0.2-4.3-1.3-6.2-1.9c-6.6-2.2-9-2.9-11.3-1.8
		c-7.1,3.5-15.5,2.1-18.6-0.2c-6.4-4.8-7.6-13.9-2.9-20.2c2.3-3.1,5.7-5.1,9.5-5.6s7.6,0.4,10.7,2.8c3.1,2.3,5.1,5.7,5.6,9.5
		c0.3,2.4,2.6,4.1,5,3.7c2.4-0.3,4.1-2.6,3.7-5c-0.9-6.1-4.1-11.6-9-15.3c-5-3.7-11.1-5.3-17.2-4.4s-11.6,4.1-15.3,9
		c-7.1,9.4-5.9,22.5,2.3,30.5c-8.9,2.5-15,10.1-15,19.6v54.3c0,2.7,2.2,4.9,4.9,4.9s4.9-2.2,4.9-4.9v-54.3c0-6.2,5-10.7,11.8-10.7
		h79.3H142h69.3c6.1,0,12.8,4.1,12.8,10.7v54.3c0,2.7,2.2,4.9,4.9,4.9s4.9-2.2,4.9-4.9v-54.3C233.9,165.1,223.8,155.9,211.4,155.9z
		 M155.8,155.9c0.5-1.5,0.9-3.2,0.9-4.9c0-8.1-6.5-14.6-14.5-14.6h-28.5c-0.1,0-0.2,0-0.4,0c-3,0.2-6.7-0.2-7.8-0.9
		c-1.3-2.2-4.1-3.1-6.4-1.9c-2.4,1.2-3.4,4.1-2.2,6.5c3.2,6.4,13.5,6.3,16.9,6h28.3c2.6,0,4.8,2.2,4.8,4.9s-2.2,4.9-4.8,4.9h-25.2
		h-25c-6.1-2-10.6-7.7-10.6-14.2c0-8.2,6.8-15,14.8-15h66.3V156h-6.6V155.9z M206.3,199.8c0,2.7-2.2,4.9-4.9,4.9H42.1
		c-2.7,0-4.9-2.2-4.9-4.9s2.2-4.9,4.9-4.9h159.3C204.1,194.9,206.3,197.1,206.3,199.8z M52.8,71.3c0.5,0.2,13.3,5.9,29.6,5.9
		c0.6,0,1.3,0,1.9,0c17.2-0.5,28.6-6,29.1-6.2c1.3-0.6,2.2-1.8,2.4-3.2c0.2-1.4-0.2-2.8-1.2-3.8l-27-27.2V19.3
		c0-2.7-2.2-4.9-4.9-4.9c-2.7,0-4.9,2.2-4.9,4.9v15.8L51.3,64.3c-0.9,1-1.3,2.5-1,3.9C50.5,69.6,51.5,70.7,52.8,71.3z M82,43.6
		L82,43.6l21.5,21.6C99,66.6,92.2,68.1,84,68.3c-8.8,0.2-16.7-1.5-21.8-3L82,43.6z M84.4,87.6v6.5c0,2.7-2.2,4.9-4.9,4.9
		c-2.7,0-4.9-2.2-4.9-4.9v-6.5c0-2.7,2.2-4.9,4.9-4.9C82.2,82.7,84.4,84.9,84.4,87.6z M48,89.8l4.3-7.6c1.2-2.1,3.9-2.8,6-1.6
		c2.1,1.2,2.8,3.9,1.6,6l-4.3,7.6c-0.8,1.4-2.3,2.2-3.8,2.2c-0.7,0-1.5-0.2-2.2-0.6C47.6,94.6,46.8,91.9,48,89.8z M109.2,82.1l4.3,7
		c1.3,2.1,0.6,4.8-1.4,6c-0.7,0.4-1.5,0.7-2.3,0.7c-1.5,0-2.9-0.7-3.7-2.1l-4.3-7c-1.3-2.1-0.6-4.8,1.4-6
		C105.3,79.3,108,80,109.2,82.1z"/>
</g>
<g id="Diagnostics" class="st0">
	<g class="st1">
		<path class="st3" d="M154.3,36.5c16.8,5.6,31.5,15.8,42.6,29.2l-10.6-1.4c-0.1-0.1-0.2-0.2-0.3-0.3c-9.1-9.1-20.3-16.2-32.8-20.5
			C153.8,41.2,154.2,38.9,154.3,36.5L154.3,36.5z M215.8,104.2c1.5,6.7,2.3,13.6,2.3,20.7c0,37.7-22.5,70.2-54.7,84.9l-0.2-7.6
			c8.5-4.2,16.1-9.7,22.7-16.3c15.6-15.6,25.3-37.2,25.3-61c0-7.3-0.9-14.4-2.6-21.2l2.8,0.4C212.9,104.4,214.4,104.4,215.8,104.2
			L215.8,104.2z M86.6,209.8c-32.3-14.6-54.7-47.1-54.7-84.9c0-7.1,0.8-14.1,2.3-20.7c1.4,0.2,2.9,0.1,4.4-0.1l2.8-0.4
			c-1.7,6.8-2.6,13.9-2.6,21.2c0,23.8,9.7,45.4,25.3,61c4.6,4.6,9.7,8.7,15.3,12.2c1.4,3,3.3,5.9,5.8,8.3c0.5,0.5,1,1,1.6,1.5
			L86.6,209.8L86.6,209.8z M63.5,55c9.3-8.2,20.2-14.5,32.2-18.5c0.1,2.4,0.5,4.7,1.1,6.9c-7.4,2.5-14.3,6.1-20.6,10.4
			c-1.2-0.2-2.5-0.2-3.7-0.2C69.4,53.5,66.3,54,63.5,55L63.5,55z"/>
		<path class="st8" d="M125,14.6c-11.4,0-20.7,9.3-20.7,20.7S113.6,56,125,56s20.7-9.3,20.7-20.7S136.4,14.6,125,14.6L125,14.6z
			 M152,91c2.6,3.7,4.1,8.1,4.1,12.9c0,4.4-1.3,8.5-3.5,12l2.6,109c0,0.3,0.1,0.7,0.1,1c0,5.2-4.2,9.5-9.5,9.5h-3.5l0,0
			c-5,0-9.2-4-9.5-9.1l-3-64.2h-9.6l-0.5,10.7c3.3,3.5,5.3,8.3,5.3,13.5c0,5.5-2.2,10.4-5.8,14c-0.3,0.3-0.5,0.5-0.8,0.8l-1.2,24.6
			c0,0.1,0,0.2,0,0.3c0,5.2-4.2,9.5-9.5,9.5h-3.5l0,0c-0.1,0-0.1,0-0.2,0c-5.2-0.1-9.4-4.5-9.2-9.7l0.5-22.2c-1.6-0.9-3-2-4.2-3.2
			c-3.6-3.6-5.8-8.5-5.8-14s2.2-10.4,5.8-14c1.5-1.5,3.2-2.7,5.1-3.7l1.9-81.2c-2.1,0.3-4.3,0.6-6.6,0.9h-0.2c-1,3-2.6,5.6-4.8,7.8
			c-3.6,3.6-8.5,5.8-14,5.8s-10.4-2.2-14-5.8c-0.9-0.9-1.7-1.9-2.4-3l-18.6,2.5c-5.2,0.7-9.9-2.9-10.6-8.1S29.8,77.7,35,77l19.4-2.6
			c1-2.3,2.4-4.5,4.2-6.2c3.6-3.6,8.5-5.8,14-5.8s10.4,2.2,14,5.8c0.5,0.5,1,1.1,1.5,1.7l1-0.1c15.9-2.2,26-3.3,36-3.3
			s20.1,1.1,36,3.3l54.1,7.4c5.2,0.7,8.8,5.5,8.1,10.6c-0.7,5.2-5.5,8.8-10.6,8.1l-54.1-7.4c-2.3-0.3-4.5-0.6-6.6-0.9L152,91L152,91
			z M95.7,187.4c0-0.4-0.1-0.8-0.1-1.1c0-0.5,0-1.1,0.1-1.6V187.4L95.7,187.4z M105.2,176.8c5.2,0,9.5,4.2,9.5,9.5
			c0,5.2-4.2,9.5-9.5,9.5c-5.2,0-9.5-4.2-9.5-9.5S99.9,176.8,105.2,176.8L105.2,176.8z M133.6,91.8c6.7,0,12.1,5.4,12.1,12.1
			s-5.4,12.1-12.1,12.1c-6.7,0-12.1-5.4-12.1-12.1C121.5,97.2,127,91.8,133.6,91.8L133.6,91.8z M72.5,72.5c5.2,0,9.5,4.2,9.5,9.5
			c0,5.2-4.2,9.5-9.5,9.5c-5.2,0-9.5-4.2-9.5-9.5C63,76.8,67.3,72.5,72.5,72.5L72.5,72.5z"/>
	</g>
</g>
<g id="out-ptaient_cover" class="st0">
	<g class="st1">
		<path class="st3" d="M183.1,131.8c-0.7-2.1-2.8-3.2-4.9-2.9v-0.1h-13.5c-2.5,0-4.5,2-4.5,4.5s2,4.5,4.5,4.5h0.3l-18.9,48.8h-13.6
			c-2.6,0-5.1,1-7,2.7s-2.8,5-3.3,7.5s1.1,4.8,3.6,5.3c0.3,0.1,0.6,0.1,0.9,0.1c2.1,0,4-1.5,4.5-3.7c0.2-1.1,0.6-2.5,0.5-2.5l0,0
			c0.2-0.2,0.6-0.3,0.9-0.3l19.9-0.1l22.8-59l21.3,61.5c1,2.8,0.5,6-1.2,8.4c-1.8,2.5-4.6,3.9-7.6,3.9h-62.5
			c-3.8,0-7.6-1.7-10.4-4.6c-2.8-2.8-4.3-6.5-4.3-10.5V193c0.1-7.6,5.8-13.9,13.4-14.6l2.7-0.2l18-43.4c1-2.3-0.1-5-2.5-5.9
			c-2.3-1-5,0.1-5.9,2.5l-16,38.5c-10.9,2.3-18.8,11.8-18.9,23.2v2.3c-0.1,6.4,2.4,12.4,6.9,17s10.7,7.2,16.9,7.3h62.5
			c5.9,0,11.5-2.9,15-7.7c3.4-4.8,4.3-11.1,2.4-16.7L183.1,131.8z"/>
		<path class="st3" d="M64.5,145.8l-15,68.4c-0.5,2.4,1,4.9,3.5,5.4c0.3,0.1,0.7,0.1,1,0.1c2.1,0,4-1.4,4.4-3.6l15-68.4
			c1.3-5.7,6.4-9.9,12.3-9.9h25.4c2.5,0,4.5-2,4.5-4.5s-2-4.5-4.5-4.5H85.7C75.6,128.7,66.7,135.9,64.5,145.8z"/>
		<path class="st3" d="M168.3,70.1c0-21.9-17.8-39.8-39.8-39.8c-21.9,0-39.8,17.8-39.8,39.8c0,21.9,17.8,39.8,39.8,39.8
			C150.5,109.9,168.3,92,168.3,70.1z M97.9,70.1c0-16.9,13.8-30.7,30.7-30.7s30.7,13.8,30.7,30.7s-13.8,30.7-30.7,30.7
			S97.9,87,97.9,70.1z"/>
		<path class="st3" d="M80.5,219.6c0.3,0.1,0.6,0.1,0.9,0.1c2.1,0,4-1.5,4.5-3.7l8.9-45.4c0-0.2,0-0.3,0-0.4c0-0.1,0.1-0.3,0.1-0.4
			c0-0.2-0.1-0.3-0.1-0.5s-0.1-0.5-0.1-0.7c-0.1-0.3-0.2-0.6-0.4-0.9c-0.1-0.2-0.2-0.4-0.3-0.6c-0.2-0.3-0.5-0.5-0.7-0.7
			c-0.2-0.1-0.3-0.3-0.5-0.4c-0.4-0.2-0.8-0.4-1.3-0.5c-0.1,0-0.2-0.1-0.3-0.1l0,0l0,0c-0.9-0.4-2.7-1.8-3-3
			c-0.6-2.4-3.1-3.9-5.5-3.3c-2.4,0.6-3.9,3.1-3.3,5.5c0.8,3.2,3.3,6,5.9,7.7l-8.2,42C76.4,216.7,78,219.1,80.5,219.6z"/>
	</g>
</g>
<g id="Psychiatric_cover" class="st0">
	<g class="st1">
		<g>
			<g>
				<path class="st9" d="M153.6,132.5l1.9-1.9c6.8-6.8,6.8-17.7,0-24.5l-0.3-0.3c-6.8-6.8-17.8-6.8-24.5,0l-1.9,1.9l-1.9-1.9
					c-6.8-6.8-17.7-6.8-24.5,0l-0.3,0.3c-6.8,6.8-6.8,17.7,0,24.5l1.9,1.9l24.8,24.8L153.6,132.5z"/>
			</g>
			<g>
				<path class="st9" d="M97,111.9"/>
			</g>
			<g>
				<line class="st9" x1="126.4" y1="25.6" x2="126.4" y2="46.9"/>
				<line class="st9" x1="74.8" y1="40.2" x2="85.5" y2="58.7"/>
				<line class="st9" x1="37.4" y1="78.8" x2="55.9" y2="89.4"/>
				<line class="st9" x1="24.3" y1="130.8" x2="45.7" y2="130.8"/>
				<line class="st9" x1="231.6" y1="127.6" x2="210.3" y2="127.6"/>
				<line class="st9" x1="217" y1="76" x2="198.4" y2="86.7"/>
				<line class="st9" x1="178.4" y1="38.6" x2="167.7" y2="57.2"/>
			</g>
		</g>
		<g>
			<path class="st9" d="M177.3,234.5v-60.2c11.8-11.8,19.1-28.1,19.1-46.1c0-36-29.2-65.3-65.3-65.3s-65.3,29.2-65.3,65.3
				c0,1,0,2,0.1,3L56.8,147l-12,20.8H60v25.8c0,9.7,7.9,17.6,17.6,17.6h27.9v23.4"/>
		</g>
	</g>
</g>
<g id="Underwritting" class="st0">
	<g class="st1">
		<polygon class="st9" points="45.9,82.9 138.7,175.8 153.4,210 119.2,195.3 26.3,102.5 		"/>
		<path class="st9" d="M41,82.9L36.1,78c-4.1-4-10.6-4-14.7,0l0,0c-4.1,4.1-4.1,10.6,0,14.7l4.9,4.9"/>
		<line class="st9" x1="133.9" y1="175.8" x2="119.2" y2="190.5"/>
		<path class="st9" d="M75.2,92.7V38.9c0-5.4,4.4-9.8,9.8-9.8h107.6l39.1,39.1v156.4c0,5.4-4.4,9.8-9.8,9.8H85
			c-5.4,0-9.8-4.4-9.8-9.8v-53.8"/>
		<polyline class="st9" points="217,73.1 187.6,73.1 187.6,43.8 		"/>
		<line class="st9" x1="168.1" y1="210" x2="207.2" y2="210"/>
		<line class="st9" x1="109.4" y1="102.5" x2="202.3" y2="102.5"/>
		<line class="st9" x1="109.4" y1="122" x2="202.3" y2="122"/>
		<line class="st9" x1="129" y1="141.6" x2="202.3" y2="141.6"/>
		<line class="st9" x1="148.5" y1="161.1" x2="202.3" y2="161.1"/>
	</g>
</g>
<g id="Excess" class="st0">
	<path marker-start="none" marker-end="none" class="st7" d="M53.2,215.2c-13.3,0-24.1-10.8-24.1-24V89.4
		c0-13.4,10.8-24.1,24.1-24.1h10.3l0.3-0.4c0.4-0.3,0.9-0.6,1.4-0.8l91-29.1c2.1-0.7,4.3,0.4,5,2.5l9.7,27.8h6.6
		c13.3,0,24.1,10.8,24.1,24.1v26.4h9.3c5.5,0,10,4.5,10,10v30.6c0,5.5-4.5,10-10,10h-9.3v24.8c0,13.3-10.8,24-24.1,24L53.2,215.2
		L53.2,215.2z M177.4,207.3c8.9,0,16.1-7.2,16.1-16.1v-24.8h-8.7v7.2c0,2.2-1.8,4-4,4s-4-1.8-4-4v-7.2h-28.1c-5.5,0-10-4.5-10-10
		v-30.6c0-5.5,4.5-10,10-10h28.1v-13.3c0-2.2,1.8-4,4-4s4,1.8,4,4v13.3h8.7V89.4c0-8.9-7.2-16.1-16.1-16.1H53.2
		c-8.9,0-16.1,7.2-16.1,16.1v101.8c0,8.9,7.2,16.1,16.1,16.1L177.4,207.3L177.4,207.3z M71.5,200.8c-2.2,0-4-1.8-4-4s1.8-4,4-4h15.9
		c2.2,0,4,1.8,4,4s-1.8,4-4,4H71.5z M103.4,200.8c-2.2,0-4-1.8-4-4s1.8-4,4-4h15.9c2.2,0,4,1.8,4,4s-1.8,4-4,4H103.4z M135.3,200.8
		c-2.2,0-4-1.8-4-4s1.8-4,4-4h16c2.2,0,4,1.8,4,4s-1.8,4-4,4H135.3z M167.2,200.8c-2.2,0-4-1.8-4-4s1.8-4,4-4h1.9
		c3.3,0,6.1-2.1,7.2-4.9c0.8-2.1,3.1-3.1,5.2-2.3c2,0.9,3.1,3.2,2.3,5.2c-2.3,5.8-8,9.9-14.6,9.9h-2V200.8z M55.7,200
		c-0.5,0-1-0.1-1.5-0.3c-5.8-2.3-9.9-7.9-9.9-14.5v-2c0-2.3,1.8-4.1,4-4.1s4,1.8,4,4.1v2c0,3.3,2,6,4.9,7.1c2,0.9,3,3.2,2.2,5.2
		C58.7,199,57.2,200,55.7,200z M48.2,171.2c-2.2,0-4-1.8-4-4.1v-15.9c0-2.2,1.8-4,4-4s4,1.8,4,4v15.9
		C52.2,169.4,50.4,171.2,48.2,171.2z M210.8,158.4c1.1,0,2-0.9,2-2.1v-30.6c0-1.2-0.9-2.1-2-2.1h-62.1c-1.1,0-2,0.9-2,2.1v30.6
		c0,1.2,0.9,2.1,2,2.1H210.8z M165,153.6c-7.3,0-13.2-5.8-13.2-13.1s5.9-13.3,13.2-13.3s13.2,5.9,13.2,13.3
		C178.2,147.8,172.3,153.6,165,153.6z M165,145.7c2.9,0,5.2-2.4,5.2-5.1c0-3-2.3-5.2-5.2-5.2s-5.2,2.3-5.2,5.2
		C159.8,143.3,162.1,145.7,165,145.7z M67.1,141.4c-1,0-2-0.4-2.8-1.2c-1.6-1.6-1.6-4.2,0-5.6L98.9,100c1.6-1.5,4.1-1.5,5.6,0
		c1.6,1.6,1.6,4.2,0,5.6L70,140.2C69.2,141,68.1,141.4,67.1,141.4z M48.2,139.3c-2.2,0-4-1.8-4-4v-15.9c0-2.2,1.8-4,4-4s4,1.8,4,4
		v15.9C52.2,137.5,50.4,139.3,48.2,139.3z M62.7,120.4c-1,0-2-0.4-2.8-1.2c-1.6-1.6-1.6-4.1,0-5.6l18-18c1.6-1.6,4.1-1.6,5.6,0
		c1.6,1.6,1.6,4.1,0,5.6l-18,18C64.7,120,63.7,120.4,62.7,120.4z M48.2,107.4c-2.2,0-4-1.8-4-4v-7.2c0-4.2,1.6-7.9,4.2-10.7
		c1.5-1.6,4-1.7,5.6-0.2s1.7,4.1,0.2,5.6c-1.3,1.4-2.1,3.3-2.1,5.2v7.2C52.2,105.6,50.4,107.4,48.2,107.4z M177.2,91.7
		c-1,0-2-0.3-2.9-1.1c-1.4-1.3-3.2-2.1-5.3-2.1h-7c-2.2,0-4-1.8-4-4c0-2.3,1.8-4.1,4-4.1h7.1c4.1,0,7.9,1.7,10.7,4.3
		c1.6,1.6,1.7,4.1,0.2,5.6C179.2,91.3,178.3,91.7,177.2,91.7z M66.2,88.5c-2.2,0-4-1.8-4-4c0-2.3,1.8-4.1,4-4.1h15.9
		c2.2,0,4,1.8,4,4.1c0,2.2-1.8,4-4,4H66.2z M98.2,88.5c-2.2,0-4-1.8-4-4c0-2.3,1.8-4.1,4-4.1h15.9c2.2,0,4,1.8,4,4.1
		c0,2.2-1.8,4-4,4H98.2z M130,88.5c-2.2,0-4-1.8-4-4c0-2.3,1.8-4.1,4-4.1h16c2.2,0,4,1.8,4,4.1c0,2.2-1.8,4-4,4H130z M162.4,65.2
		l-7.5-21.5L87.7,65.2H162.4z"/>
</g>
</svg>
