<svg xmlns="http://www.w3.org/2000/svg" viewBox="0 0 27.68 37.75"><defs><style>.cls-1{fill:#5bb6b1;}</style></defs><title>hospital</title><g id="Layer_2" data-name="Layer 2"><g id="Layer_12" data-name="Layer 12"><path id="_Compound_Path_" data-name="&lt;Compound Path&gt;" class="cls-1" d="M13.84,0A13.58,13.58,0,0,0,0,13.29a12.84,12.84,0,0,0,2,6.86l11.87,17.6L25.71,20.15a12.84,12.84,0,0,0,2-6.85A13.58,13.58,0,0,0,13.84,0Zm0,18.9a5.78,5.78,0,0,1-5.9-5.66,5.78,5.78,0,0,1,5.9-5.66,5.78,5.78,0,0,1,5.9,5.66A5.78,5.78,0,0,1,13.84,18.9Z"/></g></g></svg>