<svg xmlns="http://www.w3.org/2000/svg" viewBox="0 0 203.19 65.76"><defs><style>.cls-1{fill:#fff;}</style></defs><title>Asset 1</title><g id="Layer_2" data-name="Layer 2"><g id="Layer_1-2" data-name="Layer 1"><path class="cls-1" d="M26.59,32.19A4.39,4.39,0,0,0,23.15,28c-4.91,5.57-5.4,14.64-5.72,17.71-.17,3.61,3.44,3.71,3.44,3.71,4.15-1,3.6-4.22,3.6-4.22a1.3,1.3,0,0,1-.41-1.11C24.05,43.21,26.59,33,26.59,32.19Z"/><path class="cls-1" d="M81.7,28.3c.86,0,2.78-1.47,2.78-2.7,0-.55-2.09-5.06-4.91-5.06a2.29,2.29,0,0,0-2,1.85C77.61,23.8,78.8,28.3,81.7,28.3Z"/><path class="cls-1" d="M27.74,25.08c.86,0,2.45-.58,2.45-1.8,0-.55-2.23-5.9-5.06-5.9a2.29,2.29,0,0,0-2,1.85C23.16,20.62,23.48,25.08,27.74,25.08Z"/><path class="cls-1" d="M36.47.5C35.31-.81,20.42-2.5,7.58,38a.28.28,0,0,1-.55,0C5,27.21,5.91,15,5.65,13.07,5,8.2.89,9.75.89,9.75-1,13.62.22,44.89,3.33,49c1.86.79,7.17.52,8.3-.74C11.62,48.22,19.07,8.69,36.47.5Z"/><path class="cls-1" d="M116.35,29.42c-.38,0-.61.48-.61.48-4.5,8.13-8.58,14.6-12,14.86-.75,0-1.15-.36-1.3-1.15h0c-.42-3.13,2.51-10.84,2.3-13-.08-.81-.49-.73-1-1.05a3.78,3.78,0,0,0-.55.57.3.3,0,0,1-.34.09,33.67,33.67,0,0,0-6.23-1.51c1.6-4.49,4.93-13.9,4.93-14.74,0-2.11-1.54-2.82-4.16-3.52-4.21,7.41-6.88,17.51-7.07,18.26-1.36,1.23-3.42.1-3.82,2.5,1,1.08,2.94,2,2.94,2.81s-1.43,4.24-.88,15.41c.74.29,3.77-3,3.86-3.91.84-8.69,3-11.8,3-11.8a31.63,31.63,0,0,0,5.5-.3.07.07,0,0,1,.08.11c-.49,1-3.44,7.07-3.46,9.89,0,3.65,1.17,5.71,4.2,6a8.69,8.69,0,0,0,1.94,0,14.47,14.47,0,0,0,9.05-5.15.26.26,0,0,1,.45.24c-4.46,15.89-13.06,19.87-16.68,20.74.13,1.11,6.38.79,10.76-2.91a35.34,35.34,0,0,0,10.3-16c.48-1.63.94-3.3,1.3-5a50.86,50.86,0,0,0,1.07-9.44C119.91,31.34,117,29.42,116.35,29.42Z"/><path class="cls-1" d="M86.57,47.24h-.16c-4.67,0,.82-16.45-5.75-15.56A12.79,12.79,0,0,0,77.29,33a.75.75,0,0,0-.29.28,65.62,65.62,0,0,1-8.16,10.62.75.75,0,0,1-1.27-.28c-2.4-7.72,8.14-30.44,8.3-30.93.8-2.56-2.7-3.77-4.44-4-3.81,5.4-10.22,22.53-9.58,36.16a.42.42,0,0,1-.26.41c-1.08.45-5,1.86-4.51-1.32.12-.83,2-5.73,2-6.57,0-.55-2.33-3.71-4.09-3.71-.72,0-7.34,8.36-9.56,10.31a.75.75,0,0,1-1.18-.26c-1.2-2.64,1.7-9.91,10-12.66A21.43,21.43,0,0,0,56.34,29a.79.79,0,0,0,.1-.65c-.1-.38-.6-.64-.63-.66h0c-4.61-2.13-14.87-1.83-16.62-2.07,1.29-5.88,5.32-15.3,5.43-16.22.17-1.41-1.22-2.79-4.07-3.56a126.69,126.69,0,0,0-8.62,19.7c-.77.8-1.91.48-2.63,2.73,0,1,1.66,2.16,1.66,3.08s-1.57,5.83-1,18.06c2.27.14,4.72-3.46,4.89-4.51a99.54,99.54,0,0,1,2.87-13.79,71.06,71.06,0,0,0,9.1-.59.09.09,0,0,1,.07.16C42.52,34.41,38.32,38,38.42,45c0,2.82,3,4.43,4.75,4.42,3,0,6-2.64,7.44-4.28a.49.49,0,0,1,.84.24,4.76,4.76,0,0,0,4.81,4c2,0,4.9-1.87,6-2.48a.23.23,0,0,1,.29.05c.74.84,2.24,2.43,3.67,2.43,4.28,0,8.62-6.23,11-10.07a.44.44,0,0,1,.81.14c.93,4.12.89,9.94,5,9.94a12.32,12.32,0,0,0,3.77-.72A.75.75,0,0,0,86.57,47.24Z"/><path class="cls-1" d="M137.15,49.32V41.77h-4.21v7.55h-4.06V31.26h4.06v6.86h4.21V31.26h4.06V49.32Z"/><path class="cls-1" d="M143.47,49.32V31.26h8.73v3.6h-4.82V38.4h4.44v3.37h-4.44v3.9h5.13v3.65Z"/><path class="cls-1" d="M163.51,49.32,162.77,46h-4.06L158,49.32h-4.08l4.39-18.07h5.13l4.37,18.07Zm-2.7-14.14h-.1l-1.53,7.68h3.09Z"/><path class="cls-1" d="M169.43,49.32V31.26h4.13V45.55h4.82v3.78Z"/><path class="cls-1" d="M185.38,34.73v14.6h-4V34.73h-3.32V31.26H188.7v3.47Z"/><path class="cls-1" d="M199.13,49.32V41.77h-4.21v7.55h-4.06V31.26h4.06v6.86h4.21V31.26h4.06V49.32Z"/></g></g></svg>