<?xml version="1.0" standalone="no"?>
<!DOCTYPE svg PUBLIC "-//W3C//DTD SVG 20010904//EN"
 "http://www.w3.org/TR/2001/REC-SVG-20010904/DTD/svg10.dtd">
<svg version="1.0" xmlns="http://www.w3.org/2000/svg"
 width="700.000000pt" height="700.000000pt" viewBox="0 0 700.000000 700.000000"
 preserveAspectRatio="xMidYMid meet">
<metadata>
Created by potrace 1.11, written by Peter Selinger 2001-2013
</metadata>
<g transform="translate(0.000000,700.000000) scale(0.100000,-0.100000)"
fill="#000000" stroke="none">
<path d="M5608 6286 c-1 -2 -29 -6 -61 -10 -261 -27 -589 -192 -876 -441 -62
-53 -306 -298 -360 -360 -603 -701 -1165 -1818 -1645 -3275 -56 -168 -75 -216
-90 -218 -10 -2 -22 0 -27 5 -7 7 -51 247 -64 353 -3 25 -7 56 -10 70 -3 24
-12 96 -20 170 -2 19 -6 58 -10 85 -3 28 -8 75 -10 105 -3 30 -7 80 -10 110
-2 30 -7 102 -10 160 -3 58 -8 136 -11 173 -11 156 -16 375 -18 973 -1 346 -5
634 -8 640 -3 5 -9 26 -12 46 -18 117 -100 240 -193 290 -81 44 -210 55 -300
25 -33 -11 -39 -18 -54 -69 -9 -31 -20 -83 -24 -114 -4 -32 -9 -67 -11 -79 -2
-11 -7 -49 -10 -85 -3 -36 -7 -78 -10 -95 -26 -184 -26 -1251 1 -1725 1 -30 6
-111 10 -180 3 -69 8 -147 10 -175 2 -27 7 -86 10 -130 3 -44 8 -105 10 -135
5 -55 12 -134 20 -220 3 -25 7 -67 10 -95 6 -72 14 -145 20 -185 3 -19 8 -57
11 -85 3 -27 7 -61 9 -75 2 -14 9 -63 15 -110 6 -47 18 -119 25 -160 8 -41 16
-92 19 -113 4 -21 13 -68 22 -105 8 -37 22 -96 30 -132 41 -179 106 -330 152
-354 58 -30 190 -44 382 -41 102 2 196 6 210 9 14 4 39 8 55 11 114 19 216 57
249 94 9 10 28 68 42 127 14 60 27 116 29 124 5 24 26 113 30 130 128 579 381
1426 609 2038 134 360 293 727 455 1052 466 932 998 1568 1569 1878 60 32 80
47 70 53 -23 16 -92 32 -148 36 -30 2 -60 5 -67 7 -6 3 -13 3 -15 2z"/>
</g>
</svg>
