<?xml version="1.0" encoding="utf-8"?><!DOCTYPE svg PUBLIC "-//W3C//DTD SVG 1.1//EN" "http://www.w3.org/Graphics/SVG/1.1/DTD/svg11.dtd"><svg width="327" height="317" viewBox="0 0 327 317" xmlns="http://www.w3.org/2000/svg" xmlns:xlink="http://www.w3.org/1999/xlink"><svg viewBox="-2 -2 26 26" width="26" height="26" id="facebook" x="78" y="290.82"><title>facebook</title><path data-name="&lt;Path>" d="M14.43 11h-2.25v8H8.86v-8H7.28V8.18h1.58V6.35A3.12 3.12 0 0 1 12.21 3h2.46v2.75h-1.78a.68.68 0 0 0-.7.77v1.66h2.53z" fill="#666"/></svg><svg viewBox="-2 -2 26 26" width="26" height="26" id="facebook--footer" x="104" y="290.82"><title>facebook</title><path data-name="&lt;Path>" d="M14.43 11h-2.25v8H8.86v-8H7.28V8.18h1.58V6.35A3.12 3.12 0 0 1 12.21 3h2.46v2.75h-1.78a.68.68 0 0 0-.7.77v1.66h2.53z" fill="#5bb6b1"/></svg><svg id="icon-mouse" viewBox="-2 -2 35.7 35.7" width="35.7" height="35.7" x="216" y="175.99"><style>.acst0{fill:#5bb6b1}</style><path class="acst0" d="M24.1 19.5L17.7 13c-2.6-2.6-6.8-2.8-9.6-.5-.3-.5-.5-1.3-.3-2 .3-1.1.7-1.4 2.3-2 2.6-.9 3.5-2.2 4-3.4.7-1.5.6-3.1 0-4.7 0-.3-.4-.5-.7-.4-.4.1-.5.5-.5.9.6 2.6.7 5.4-3.2 6.5-2.2.6-2.9 1.8-3.2 2.9-.3 1.1 0 2.3.7 3.2-2.4 2.8-2.2 7 .4 9.7l6.4 6.4c2.8 2.8 7.3 2.8 10.1 0s2.8-7.3 0-10.1zM8.5 22.2c-2.1-2.1-2.3-5.5-.4-7.8l4.5 4.6.9-.9-4.6-4.6c2.3-1.8 5.7-1.7 7.8.4l.5.5-8.3 8.3-.4-.5zm14.7 6.5c-2.3 2.3-6 2.3-8.3 0l-5.1-5.1 8.3-8.3 5.1 5.1c2.3 2.3 2.3 6 0 8.3zM19.5 25c-.5.5-.5 1.3 0 1.8s1.3.5 1.8 0 .5-1.3 0-1.8-1.3-.5-1.8 0z" id="acMouse_1_"/></svg><svg id="icon-phone" viewBox="-2 -2 29.3 29.3" width="29.3" height="29.3" x="162.69" y="78.03"><style>.adst0{fill:none;stroke:#5bb6b1;stroke-width:.7;stroke-miterlimit:10}</style><path class="adst0" d="M22.6 18.6c0-.4-.2-.7-.4-1l-.2-.2-3.9-3c-.2-.2-.6-.4-1-.4-.3 0-.6.1-.8.2l-1 1.1c-.2.2-.4.3-.7.3-.3 0-.6-.2-.7-.4-1.5-1.1-2.8-2.4-3.9-3.9-.2-.2-.4-.5-.4-.7s.2-.5.3-.7L11 9c.2-.2.2-.5.2-.8 0-.4-.2-.7-.4-1l-3-3.9v-.2c-.2-.2-.7-.4-1-.4-1.8 0-4.2 2.1-4.2 4.7 0 .7.2 1.4.5 2.1 2.7 5.4 7.2 10 12.7 12.8.7.3 1.3.5 2.1.5 2.6-.1 4.7-2.4 4.7-4.2zm-4.7 3.2c-.6 0-1.2-.2-1.6-.4-.1 0-.1-.1-.2-.1C11 18.7 6.6 14.4 4 9.2c0-.1 0-.1-.1-.2-.2-.4-.3-1-.3-1.6 0-2.2 1.9-3.9 3.2-3.9.2 0 .2.1.3.2l.1.1v.1l3 3.9.1.1c.1.1.2.2.2.3 0 .1 0 .2-.1.2l-1 .9c-.4.4-.7.8-.7 1.3s.2.9.5 1.2v.1c1.2 1.6 2.5 2.9 4.1 4 .3.3.8.5 1.2.5.5 0 .9-.2 1.2-.5l.1-.1 1-1c.1-.1.2-.1.2-.1.2 0 .2.1.3.2l.1.1 3.9 3s.1 0 .1.1c.1 0 .1.1.1.1.1.1.2.2.2.3v.1c0 1.3-1.6 3.2-3.8 3.2z" id="adPhone_1_x40_2x.png_9_"/></svg><svg data-name="Layer 1" viewBox="-2 -2 24 24" width="24" height="24" id="icon-phone--dark" x="301.69" y="130.66"><title>icon-phone--dark</title><path d="M20 15.9a1.36 1.36 0 0 0-.4-1 1.34 1.34 0 0 0-.25-.15l-3.85-3a1.36 1.36 0 0 0-1-.4 1.34 1.34 0 0 0-.82.28l-1.03 1.09a.9.9 0 0 1-1.42-.08A17.36 17.36 0 0 1 7.35 8.8a.91.91 0 0 1-.06-1.45l1.06-1.08a1.34 1.34 0 0 0 .28-.82 1.36 1.36 0 0 0-.4-1L5.23.6a1.39 1.39 0 0 0-.17-.25 1.36 1.36 0 0 0-1-.4C2.24-.05-.03 2.09-.03 4.72a4.75 4.75 0 0 0 .46 2 28.88 28.88 0 0 0 12.74 12.83 4.75 4.75 0 0 0 2 .46c2.64 0 4.77-2.27 4.77-4.09z" fill="#666" data-name="Phone 1@2x.png"/></svg><svg viewBox="-2 -2 26 26" width="26" height="26" id="instagram" x="156" y="290.82"><title>instagram</title><path d="M14.7 10.8a3.76 3.76 0 0 1-3.7 3.7 3.76 3.76 0 0 1-3.7-3.7 5.07 5.07 0 0 1 .2-1.3H3V15a4 4 0 0 0 4 4h8a4 4 0 0 0 4-4V9.5h-4.5a5.07 5.07 0 0 1 .2 1.3z" fill="#666"/><circle cx="11" cy="10.8" r="2.2" fill="#666"/><path d="M15 3H7.2v4.2h-.9V3.1a1.88 1.88 0 0 0-.8.2v3.9h-.9V3.8A3.89 3.89 0 0 0 3 7v1.2h5.4a3.62 3.62 0 0 1 5.12-.08l.08.08H19V7a4 4 0 0 0-4-4zm1.8 3.8a.43.43 0 0 1-.4.4H15a.37.37 0 0 1-.4-.4V5.4A.43.43 0 0 1 15 5h1.3a.37.37 0 0 1 .4.4v1.4h.1z" fill="#666"/></svg><svg viewBox="-2 -2 26 26" width="26" height="26" id="instagram--footer" y="290.82"><title>instagram</title><path d="M14.7 10.8a3.76 3.76 0 0 1-3.7 3.7 3.76 3.76 0 0 1-3.7-3.7 5.07 5.07 0 0 1 .2-1.3H3V15a4 4 0 0 0 4 4h8a4 4 0 0 0 4-4V9.5h-4.5a5.07 5.07 0 0 1 .2 1.3z" fill="#5bb6b1"/><circle cx="11" cy="10.8" r="2.2" fill="#5bb6b1"/><path d="M15 3H7.2v4.2h-.9V3.1a1.88 1.88 0 0 0-.8.2v3.9h-.9V3.8A3.89 3.89 0 0 0 3 7v1.2h5.4a3.62 3.62 0 0 1 5.12-.08l.08.08H19V7a4 4 0 0 0-4-4zm1.8 3.8a.43.43 0 0 1-.4.4H15a.37.37 0 0 1-.4-.4V5.4A.43.43 0 0 1 15 5h1.3a.37.37 0 0 1 .4.4v1.4h.1z" fill="#5bb6b1"/></svg><svg data-name="Layer 1" viewBox="-2 -2 25.38 25.75" width="25.38" height="25.75" id="log-in" x="208" y="290.82"><title>log-in</title><g data-name="&lt;Group>" fill="#34404d"><path data-name="&lt;Path>" d="M14.67 11.81l-.44-.09c-.25.88-1.85 1.56-3.78 1.56s-3.42-.63-3.75-1.47a8.27 8.27 0 0 0-6.68 8.5c10.55 3.24 21.36 0 21.36 0a8.27 8.27 0 0 0-6.71-8.5zM15.61 5.74c0-4.22-2.2-5.74-4.92-5.74S5.77 1.52 5.77 5.74c0 3.17 2.2 5.74 4.92 5.74s4.92-2.57 4.92-5.74z"/></g></svg><svg data-name="Layer 1" viewBox="-2 -2 25.13 25.13" width="25.13" height="25.13" id="search" x="258.76" y="290.82"><title>search</title><g data-name="&lt;Group>" fill="none" stroke="#34404d" stroke-miterlimit="10" stroke-width="3"><path data-name="&lt;Path>" d="M13.11 3.49a6.81 6.81 0 1 1-9.61 0 6.83 6.83 0 0 1 9.61 0zM13.24 13.22l6.83 6.85"/></g></svg><svg viewBox="-2 -2 108 108" width="108" height="108" id="svg--button-video-pause" y="111.99"><circle opacity=".15" fill="#FFF" cx="51.7" cy="51.7" r="51.7"/><g fill="#FFF"><path d="M30.9 29h14v45h-14zM57.9 29h14v45h-14z"/></g></svg><svg viewBox="-2 -2 108 108" width="108" height="108" id="svg--button-video-play" x="108" y="111.99"><g fill="#FFF"><circle opacity=".15" cx="52.1" cy="51.7" r="51.7"/><path d="M36 29.4V74l39.8-22.3z"/></g></svg><svg id="svg--checkbox-tick" data-name="Layer 1" viewBox="-2 -2 24.73 20.49" width="24.73" height="20.49" x="212.47" y="219.99"><defs><style>.alcls-1{fill:none;stroke:#fff;stroke-miterlimit:10;stroke-width:3px}</style></defs><title>checkbox-tick</title><path class="alcls-1" d="M19.67 1.06L6.36 14.36l-5.3-5.3"/></svg><svg id="svg--icon-agency" data-name="Layer 1" viewBox="-2 -2 27.73 26.81" width="27.73" height="26.81" y="264.01"><defs><style>.amcls-1{fill:#4d4d4d}</style></defs><title>icon-agency</title><path class="amcls-1" d="M4.89 10.47h1.45v2.67H4.89zM4.89 15.8h1.45v2.67H4.89zM4.89 5.14h1.45v2.67H4.89zM9.33 15.8h1.45v2.67H9.33zM9.33 10.47h1.45v2.67H9.33zM9.33 5.14h1.45v2.67H9.33zM17.61 13.54h2.83v1.45h-2.83zM17.61 17.1h2.83v1.45h-2.83z"/><path class="amcls-1" d="M14.25 21.45h5.19a2.87 2.87 0 0 0 2.87-2.87V8h-8.06v-9.36H-1.42v22.81h15.67zm6.61-12v9.15a1.42 1.42 0 0 1-1.42 1.4h-5.19V9.43h6.61zM0 20V.09h12.8V20H0z" transform="translate(1.42 1.36)"/></svg><svg id="svg--icon-alert" data-name="Layer 1" viewBox="-2 -2 44 44.02" width="44" height="44.02" y="219.99"><defs><style>.ancls-1{fill:#5bb6b1}.ancls-2{fill:#fff}</style></defs><title>icon-alert</title><ellipse class="ancls-1" cx="20" cy="20.01" rx="20" ry="20.01"/><path class="ancls-2" d="M20 30.14a2 2 0 0 1-2-1.9v-.1a2 2 0 0 1 .57-1.43 1.9 1.9 0 0 1 1.43-.57 2 2 0 0 1 2 2 1.9 1.9 0 0 1-.58 1.42 2 2 0 0 1-1.42.58zm-1.41-5.87V9.88h2.91v14.39h-2.91z"/></svg><svg id="svg--icon-cancel-button--quicknav" data-name="Layer 2" viewBox="-2 -2 14.11 14.11" width="14.11" height="14.11" x="237.2" y="219.99"><defs><style>.aocls-1{fill:#74a6bb}</style></defs><title>icon-cancel-button--quicknav</title><path class="aocls-1" transform="rotate(45 7.61 4.682)" d="M.3 5.38h11.54v2.75H.3z"/><path class="aocls-1" transform="rotate(135 5.918 5.696)" d="M.3 5.38h11.54v2.75H.3z"/></svg><svg id="svg--icon-chevron--down" data-name="Layer 1" viewBox="-2 -2 21 13.91" width="21" height="13.91" x="139" y="61.44"><defs><style>.apcls-1{fill:none;stroke:#4d4d4d;stroke-linecap:square;stroke-miterlimit:10;stroke-width:2px}</style></defs><title>icon-chevron--down</title><path class="apcls-1" d="M15.58 1.41L8.5 8.5 1.41 1.41"/></svg><svg id="svg--icon-chevron--down-highlight" data-name="Layer 1" viewBox="-2 -2 21 13.92" width="21" height="13.92" x="139" y="75.35"><defs><style>.aqcls-1{fill:none;stroke:#f41c5e;stroke-linecap:square;stroke-miterlimit:10;stroke-width:2px}</style></defs><title>icon-chevron--down-highlight</title><path class="aqcls-1" d="M1.41 1.41L8.49 8.5l7.09-7.09"/></svg><svg id="svg--icon-chevron--up" data-name="Layer 1" viewBox="-2 -2 21 13.91" width="21" height="13.91" x="277.64" y="78.03"><defs><style>.arcls-1{fill:none;stroke:#4d4d4d;stroke-linecap:square;stroke-miterlimit:10;stroke-width:2px}</style></defs><title>icon-chevron--up</title><path class="arcls-1" d="M15.58 8.5L8.5 1.41 1.41 8.5"/></svg><svg id="svg--icon-chevron--up-highlight" data-name="Layer 1" viewBox="-2 -2 21 13.92" width="21" height="13.92" x="139" y="89.27"><defs><style>.ascls-1{fill:none;stroke:#f41c5e;stroke-linecap:square;stroke-miterlimit:10;stroke-width:2px}</style></defs><title>icon-chevron--up-highlight</title><path class="ascls-1" d="M15.58 8.51L8.5 1.42 1.41 8.51"/></svg><svg id="svg--icon-clear-field" data-name="Layer 1" viewBox="-2 -2 29 29" width="29" height="29" x="191.99" y="78.03"><defs><style>.atcls-1{fill:#f2f2f2}.atcls-2{fill:#fff;stroke:gray;stroke-miterlimit:10;stroke-width:2px}</style></defs><title>icon-clear-field</title><circle class="atcls-1" cx="12.5" cy="12.5" r="12.5"/><path class="atcls-2" d="M16.78 8.22l-8.56 8.56M8.22 8.22l8.56 8.56"/></svg><svg id="svg--icon-close" data-name="Layer 1" viewBox="-2 -2 21.68 21.68" width="21.68" height="21.68" x="301.69" y="247.35000000000002"><defs><style>.aucls-1{fill:none;stroke:#4d4d4d;stroke-miterlimit:10;stroke-width:3px}</style></defs><title>icon-close</title><g id="au_Group_" data-name="&lt;Group>"><g id="au_Group_2" data-name="&lt;Group>"><path id="au_Path_" data-name="&lt;Path>" class="aucls-1" d="M1.06 16.62L16.62 1.06"/></g><g id="au_Group_3" data-name="&lt;Group>"><path id="au_Path_2" data-name="&lt;Path>" class="aucls-1" d="M1.06 1.06l15.56 15.56"/></g></g></svg><svg data-name="Layer 1" viewBox="-2 -2 21.68 21.68" width="21.68" height="21.68" id="svg--icon-close--white" x="301.69" y="269.03000000000003"><defs><style>.avcls-1{fill:none;stroke:#fff;stroke-miterlimit:10;stroke-width:3px}</style></defs><title>icon-close--white</title><g id="av_Group_" fill="#fff" data-name="&lt;Group>"><g data-name="&lt;Group>"><path id="av_Path_" data-name="&lt;Path>" stroke="#fff" class="avcls-1" d="M1.06 16.6L16.6 1.06"/></g><path data-name="&lt;Path>" stroke="#fff" class="avcls-1" d="M1.06 1.06L16.6 16.6"/></g></svg><svg id="svg--icon-confirmaiton" data-name="Layer 2" viewBox="-2 -2 23.4 26.17" width="23.4" height="26.17" x="301.69" y="53.67"><defs><style>.awcls-1{fill:#465460}</style></defs><title>icon-confirmaiton</title><path class="awcls-1" d="M15.52 8.07l4.21-4.21a.51.51 0 0 0 .11-.61.48.48 0 0 0-.5-.33H9.2a.52.52 0 0 0-.55.55.52.52 0 0 0 .55.53H18l-3.65 3.68a.54.54 0 0 0 0 .78L18 12.12H7v-9.7a1.66 1.66 0 0 0-3.32 0v16.07h-.96a2.22 2.22 0 0 0 0 4.43h5.37a2.22 2.22 0 0 0 0-4.43H7v-5.27h12.34a.48.48 0 0 0 .5-.33.51.51 0 0 0-.11-.61zM4.77 2.42a.56.56 0 0 1 .55-.55.52.52 0 0 1 .55.55v16.07h-1.1V2.42zM8.09 19.6a1.11 1.11 0 1 1 0 2.22H2.72a1.11 1.11 0 1 1 0-2.22h5.37z" transform="translate(-.5 -.76)"/></svg><svg id="svg--icon-confirmaiton--white" data-name="Layer 5" viewBox="-2 -2 24.4 27.17" width="24.4" height="27.17" x="301.69"><defs><style>.axcls-1{fill:#fff;stroke:#fff;stroke-miterlimit:10}</style></defs><title>icon-confirmaiton--white</title><path class="axcls-1" d="M15.52 8.07l4.21-4.21a.51.51 0 0 0 .11-.61.48.48 0 0 0-.5-.33H9.2a.52.52 0 0 0-.55.55.52.52 0 0 0 .55.53H18l-3.65 3.68a.54.54 0 0 0 0 .78L18 12.12H7v-9.7a1.66 1.66 0 0 0-3.32 0v16.07h-.96a2.22 2.22 0 0 0 0 4.43h5.37a2.22 2.22 0 0 0 0-4.43H7v-5.27h12.34a.48.48 0 0 0 .5-.33.51.51 0 0 0-.11-.61zM4.77 2.42a.56.56 0 0 1 .55-.55.52.52 0 0 1 .55.55v16.07h-1.1V2.42zM8.09 19.6a1.11 1.11 0 1 1 0 2.22H2.72a1.11 1.11 0 1 1 0-2.22h5.37z" transform="translate(0 -.26)"/></svg><svg id="svg--icon-countdown" data-name="Layer 1" viewBox="-2 -2 64 64" width="64" height="64" x="216" y="111.99"><defs><style>.aycls-1,.aycls-3{fill:#465460}.aycls-1{opacity:.1}.aycls-2{fill:#fff}</style></defs><title>icon-countdown</title><path class="aycls-1" d="M6.75 30A23.25 23.25 0 1 0 30 6.75 23.28 23.28 0 0 0 6.75 30z"/><path class="aycls-2" d="M30 29.36V3.86s-14.37 2.75-17.25 7.25S8.5 18 8.5 18z"/><path class="aycls-3" d="M0 30a30 30 0 1 1 30 30A30 30 0 0 1 0 30zm3 0A27 27 0 1 0 30 3 27 27 0 0 0 3 30z"/><path class="aycls-3" d="M30.83 31.35l-21-10.5a1.5 1.5 0 0 1 1.34-2.69l21 10.5a1.5 1.5 0 0 1-.67 2.84 1.63 1.63 0 0 1-.67-.15z"/></svg><svg id="svg--icon-cross" data-name="Layer 2" viewBox="-2 -2 18.43 18.43" width="18.43" height="18.43" x="280" y="111.99"><defs><style>.azcls-1{fill:none;stroke:#c1272d;stroke-miterlimit:10;stroke-width:3px}</style></defs><title>icon-cross</title><path class="azcls-1" d="M13.36 1.06l-12.3 12.3M13.36 13.36L1.06 1.06"/></svg><svg id="svg--icon-edit-button" data-name="Layer 1" viewBox="-2 -2 16.14 16.14" width="16.14" height="16.14" x="280" y="147.92999999999998"><defs><style>.bacls-1{fill:#fff}</style></defs><title>icon-edit-button</title><path class="bacls-1" d="M9.35 0l-1.4 1.4 2.79 2.79 1.4-1.4zM7.48 1.87L1.22 8.13 4 10.92l6.26-6.26zM.79 8.64L0 12.14l3.5-.79z"/></svg><svg id="svg--icon-edit-button--quicknav" data-name="Layer 1" viewBox="-2 -2 16.14 16.14" width="16.14" height="16.14" x="279.7" y="175.99"><defs><style>.bbcls-1{fill:#74a6bb}</style></defs><title>icon-edit-button--quicknav</title><path class="bbcls-1" d="M9.35.69l-1.4 1.4 2.79 2.79 1.4-1.4zM7.48 2.56L1.22 8.82 4 11.6l6.26-6.26zM.79 9.32L0 12.82 3.5 12z" transform="translate(0 -.69)"/></svg><svg id="svg--icon-error" data-name="Layer 1" viewBox="-2 -2 44 44.02" width="44" height="44.02" x="88" y="219.99"><defs><style>.bccls-1{fill:#c1272d}.bccls-2{fill:#fff}</style></defs><title>icon-alert</title><ellipse class="bccls-1" cx="20" cy="20.01" rx="20" ry="20.01"/><path class="bccls-2" d="M20 30.14a1.95 1.95 0 0 1-2-2 2 2 0 0 1 .57-1.43 1.9 1.9 0 0 1 1.43-.57 2 2 0 0 1 2 2 1.9 1.9 0 0 1-.58 1.42 2 2 0 0 1-1.42.58zm-1.41-5.87V9.88h2.91v14.39h-2.92z"/></svg><svg id="svg--icon-expired" data-name="Layer 2" viewBox="-2 -2 44 44.02" width="44" height="44.02" x="44" y="219.99"><defs><style>.bdcls-1{fill:#5bb6b1}.bdcls-2{fill:#fff}</style></defs><title>icon-expired</title><ellipse class="bdcls-1" cx="20" cy="20.01" rx="20" ry="20.01"/><path class="bdcls-2" d="M20.15 9h-.07A1.09 1.09 0 0 0 19 10.16a1 1 0 0 0 1.2 1.15 8.71 8.71 0 0 1-.2 17.41 8.65 8.65 0 0 1-8.69-8h2l-3.11-5.17-3.12 5.19H9A11 11 0 1 0 20.15 9z"/><path class="bdcls-2" d="M21.16 15.36a1 1 0 0 0-1-1H20a1 1 0 0 0-1 1v4.77l-1.83 1.82a1.09 1.09 0 0 0 0 1.51 1.06 1.06 0 0 0 1.51 0l2.12-2.12.07-.08a1 1 0 0 0 .28-.68v-5.22z"/></svg><svg id="svg--icon-footer-facebook" data-name="Layer 3" viewBox="-2 -2 12.96 23.3" width="12.96" height="23.3" x="301.69" y="201.38"><defs><style>.becls-1{fill:#fff}</style></defs><title>icon-footer-facebook</title><path id="be_Path_" data-name="Path" class="becls-1" d="M8.62 9.65h-2.7v9.64h-4V9.65H0v-3.4h1.9V4a3.76 3.76 0 0 1 4-4h3v3.32H6.76a.82.82 0 0 0-.85.93v2H9z" transform="translate(0 .01)"/></svg><svg id="svg--icon-footer-linkedin" data-name="Layer 1" viewBox="-2 -2 23.82 22.94" width="23.82" height="22.94" x="301.69" y="154.66"><defs><style>.bfcls-1{fill:#fff}</style></defs><title>icon-footer-linkedin</title><path class="bfcls-1" d="M19.77 11.58v7.35h-4.24v-6.86c0-1.71-.61-2.88-2.15-2.88a2.32 2.32 0 0 0-2.17 1.55 2.9 2.9 0 0 0-.14 1v7.19H6.83s.06-11.55 0-12.74h4.24v1.74a4.21 4.21 0 0 1 3.82-2.1c2.79 0 4.88 1.82 4.88 5.73zM2.4 0a2.21 2.21 0 1 0-.06 4.4 2.21 2.21 0 1 0 0-4.4h.06zM.26 18.93h4.23V6.15H.26v12.78z" transform="translate(.05 .01)"/></svg><svg id="svg--icon-footer-twitter" data-name="Layer 2" viewBox="-2 -2 27.74 23.32" width="27.74" height="23.32" x="160" y="219.99"><defs><style>.bgcls-1{fill:#fff}</style></defs><title>icon-footer-twitter</title><path id="bg_Path_" data-name="Path" class="bgcls-1" d="M21.3 4.8v.63A13.76 13.76 0 0 1 7.64 19.29h-.18A13.78 13.78 0 0 1 0 17.1a10.27 10.27 0 0 0 1.16.07 9.76 9.76 0 0 0 6-2.08 4.88 4.88 0 0 1-4.5-3.39 5 5 0 0 0 .92.09 4.91 4.91 0 0 0 1.28-.17A4.88 4.88 0 0 1 1 6.84v-.06a4.86 4.86 0 0 0 2.21.61A4.88 4.88 0 0 1 1.65.89 13.82 13.82 0 0 0 11.69 6 4.87 4.87 0 0 1 20 1.54 9.72 9.72 0 0 0 23.08.35 4.89 4.89 0 0 1 20.94 3a9.72 9.72 0 0 0 2.8-.76A9.87 9.87 0 0 1 21.3 4.8z" transform="translate(0 .03)"/></svg><svg id="svg--icon-hide" data-name="Layer 2" viewBox="-2 -2 28.3 15.55" width="28.3" height="15.55" x="249.34" y="78.03"><defs><style>.bhcls-1{fill:#666}</style></defs><title>icon-hide</title><path class="bhcls-1" d="M12.2 17.42a12.89 12.89 0 0 0 11-6 .67.67 0 0 0-1.13-.7l-.24.35a11.63 11.63 0 0 1-9.58 5 11.56 11.56 0 0 1-9.58-5l-.24-.35a.67.67 0 0 0-1.13.7 12.89 12.89 0 0 0 10.9 6zM11.53 19.2v2.11a.67.67 0 0 0 1.35 0V19.2a.67.67 0 0 0-1.35 0zM15.68 18.07a.71.71 0 0 0-.49.84l.55 2.09a.69.69 0 0 0 .65.51.34.34 0 0 0 .16 0 .71.71 0 0 0 .45-.91l-.54-2.05a.66.66 0 0 0-.78-.48zM18.92 16.72a.67.67 0 0 0-.24.92l1.05 1.84a.7.7 0 0 0 .59.35.64.64 0 0 0 .32-.08.67.67 0 0 0 .24-.92L19.84 17a.67.67 0 0 0-.92-.28zM22.65 14.58a.67.67 0 0 0-.94.94L23.19 17a.68.68 0 0 0 1-.94zM7.91 18.55l-.54 2.05a.68.68 0 0 0 .49.84.34.34 0 0 0 .16 0 .66.66 0 0 0 .65-.44l.54-2.1a.68.68 0 0 0-.49-.84.66.66 0 0 0-.81.49zM4.56 17l-1.05 1.82a.67.67 0 0 0 .24.92.72.72 0 0 0 .32.08.65.65 0 0 0 .59-.35l1.05-1.84a.67.67 0 0 0-.24-.92.67.67 0 0 0-.91.29zM2.7 14.58a.65.65 0 0 0-.94 0L.27 16.07a.65.65 0 0 0 0 .94.65.65 0 0 0 .49.19.65.65 0 0 0 .48-.2l1.48-1.48a.68.68 0 0 0-.02-.94z" transform="translate(-.07 -10.43)"/></svg><svg id="svg--icon-inbox--empty" data-name="Layer 2" viewBox="-2 -2 26.66 23.63" width="26.66" height="23.63" x="27.73" y="264.01"><defs><style>.bicls-1{fill:#666}</style></defs><title>icon-inbox--empty</title><path class="bicls-1" d="M20 .83A1.29 1.29 0 0 0 18.77 0h-15a1.29 1.29 0 0 0-1.14.83L0 10.32v8.48a.83.83 0 0 0 .83.83h21a.83.83 0 0 0 .83-.83v-8.48zm-.33 9.82h-4a.69.69 0 0 0-.5.83 3.82 3.82 0 0 1-7.64 0 .68.68 0 0 0-.53-.82H3a.79.79 0 0 1-.83-1.16l2-7.32A.89.89 0 0 1 5 1.5h12.8a.88.88 0 0 1 .83.65l1.83 7.31a.8.8 0 0 1-.83 1.19z" transform="translate(.03)"/></svg><svg id="svg--icon-inbox--full" data-name="Layer 1" viewBox="-2 -2 26.63 23.63" width="26.63" height="23.63" x="54.39" y="264.01"><defs><style>.bjcls-1{fill:#34404d}</style></defs><title>icon-messagebox--full</title><path class="bjcls-1" d="M20 1.17a1.29 1.29 0 0 0-1.2-.84h-15a1.29 1.29 0 0 0-1.16.83L0 10.65v8.48a.83.83 0 0 0 .83.87h21a.83.83 0 0 0 .83-.83v-8.52zM19.63 11h-4a.69.69 0 0 0-.5.83 3.82 3.82 0 0 1-7.64 0A.68.68 0 0 0 7 11H3a.79.79 0 0 1-.83-1.16l2-7.32A.89.89 0 0 1 5 1.83h12.8a.88.88 0 0 1 .83.65l1.83 7.31a.8.8 0 0 1-.83 1.21z" transform="translate(0 -.33)"/><path class="bjcls-1" d="M5.45 4h11.73v1H5.45zM4.95 7h12.73v1H4.95z"/></svg><svg id="svg--icon-loader-icon" data-name="Layer 3" viewBox="-2 -2 28 28" width="28" height="28" x="251.7" y="175.99"><defs><style>.bkcls-1,.bkcls-2{fill:none;stroke:#e72760;stroke-linecap:round;stroke-miterlimit:10}.bkcls-2{opacity:.01}</style></defs><title>icon-loader-icon</title><circle class="bkcls-1" cx="11.57" cy="11.22" r="3.72"/><path class="bkcls-1" d="M16.15 16.5l-1.95-1.95"/><path class="bkcls-2" d="M20.36 4.1A11.52 11.52 0 1 1 12 .5"/></svg><svg id="svg--icon-loader-surround" data-name="Layer 3" viewBox="-2 -2 28 28" width="28" height="28" x="132" y="219.99"><defs><style>.blcls-1{opacity:.01}.blcls-2{fill:none;stroke:#e72760;stroke-linecap:round;stroke-miterlimit:10}</style></defs><title>icon-loader-surround</title><g class="blcls-1"><circle class="blcls-2" cx="11.57" cy="11.22" r="3.72"/><path class="blcls-2" d="M16.15 16.5l-1.95-1.95"/></g><path class="blcls-2" d="M20.36 4.1A11.52 11.52 0 1 1 12 .5"/></svg><svg viewBox="-2 -2 21.28 23.78" width="21.28" height="23.78" id="svg--icon-person" x="301.69" y="177.6"><defs><style>.bmcls-1{isolation:isolate}.bmcls-2{fill:#465460;opacity:.3;mix-blend-mode:multiply}</style></defs><title>icon-person</title><g class="bmcls-1"><path class="bmcls-2" d="M9.57 2c3.29-.37 5.58 1.78 5.27 5.46a8.27 8.27 0 0 1-1 3.16c-.49.86-1.6 1.69-1.31 2.78.18.69 1.73 1.1 2.28 1.34 1.42.61 3.42 1.53 3.92 3a3.34 3.34 0 0 1 0 1.87c-.8 2-5.74 2.14-8.48 2.14a29 29 0 0 1-5-.32c-1.91-.35-4.22-1.1-3.53-3.58.28-1.15 1.65-1.97 2.9-2.65a17.65 17.65 0 0 1 1.85-.91c.6-.24 1.45-.45 1.52-1.23a2.21 2.21 0 0 0-.76-1.55A7.68 7.68 0 0 1 5.6 6.27 4.36 4.36 0 0 1 9.57 2z" transform="translate(-1.56 -1.95)" id="bmLayer_7" data-name="Layer 7"/></g></svg><svg id="svg--icon-policy-button--quicknav" data-name="Layer 3" viewBox="-2 -2 14.3 17.51" width="14.3" height="17.51" x="280" y="130.42"><defs><style>.bncls-1{fill:#74a6bb}</style></defs><title>icon-policy-button--quicknav</title><path class="bncls-1" d="M11.07 6.46v5.19a1.86 1.86 0 0 1-1.85 1.85H2.77a1.86 1.86 0 0 1-1.85-1.84V2.28A1.85 1.85 0 0 1 2.77.42h1.88l-.08 6s6.61-.06 6.5.04z" transform="translate(-.92)"/><path class="bncls-1" d="M10.3 5.24H5.06V0"/></svg><svg id="svg--icon-reveal" data-name="Layer 1" viewBox="-2 -2 28.35 21.24" width="28.35" height="21.24" x="220.99" y="78.03"><defs><style>.bocls-1{fill:#666}</style></defs><title>icon-reveal</title><path class="bocls-1" d="M12.84 2.79V.68a.68.68 0 0 0-1.35 0v2.11a.68.68 0 0 0 1.35 0zM8.51 4a.34.34 0 0 0 .16 0 .71.71 0 0 0 .49-.84L8.62 1a.69.69 0 1 0-1.33.35l.54 2.09a.75.75 0 0 0 .68.56zM5.1 5.36a.64.64 0 0 0 .32-.08.67.67 0 0 0 .24-.92L4.61 2.52a.67.67 0 1 0-1.16.68L4.51 5a.74.74 0 0 0 .59.36zM2.15 7.6a.69.69 0 0 0 .49-.19.65.65 0 0 0 0-.95L1.15 5A.65.65 0 0 0 .2 5a.65.65 0 0 0 0 .95l1.49 1.46a.77.77 0 0 0 .46.19zM15.82 4a.66.66 0 0 0 .65-.51L17 1.38A.69.69 0 0 0 15.68 1l-.54 2.08a.68.68 0 0 0 .49.84c.08 0 .13.08.19.08zM20.63 2.25a.67.67 0 0 0-.92.24l-1.05 1.84a.67.67 0 0 0 .24.92.72.72 0 0 0 .32.08.65.65 0 0 0 .6-.33l1.06-1.84a.65.65 0 0 0-.25-.91zM23.17 5l-1.48 1.44a.68.68 0 0 0 1 .95l1.46-1.49a.65.65 0 0 0 0-.95.69.69 0 0 0-.98.05zM23.15 11.26a.66.66 0 0 0 0-.7 12.88 12.88 0 0 0-11-6 12.92 12.92 0 0 0-11 6 .66.66 0 0 0 0 .7 12.88 12.88 0 0 0 11 6 12.92 12.92 0 0 0 11-6zm-11 4.63a11.59 11.59 0 0 1-9.61-5 11.61 11.61 0 0 1 9.61-5 11.59 11.59 0 0 1 9.61 5 11.61 11.61 0 0 1-9.6 4.99z"/><path class="bocls-1" d="M12.16 7.49a3.38 3.38 0 1 0 3.38 3.38 3.38 3.38 0 0 0-3.38-3.38zm0 5.41a2 2 0 1 1 2-2 2 2 0 0 1-2 2.01z"/></svg><svg id="svg--icon-security" data-name="Layer 3" viewBox="-2 -2 21.39 26.5" width="21.39" height="26.5" x="301.69" y="27.17"><defs><style>.bpcls-1{fill:#465460}</style></defs><title>icon-security</title><path class="bpcls-1" d="M10.2 19.46a2.17 2.17 0 0 0 2.17-2.15v-1.46a2.17 2.17 0 1 0-4.34 0v1.46a2.15 2.15 0 0 0 2.17 2.15zm-.73-3.61a.73.73 0 1 1 1.46 0v1.44a.73.73 0 1 1-1.46 0v-1.44zM6 10.06v-4a4 4 0 1 1 8.07 0V8.6h1.44V6.06a5.47 5.47 0 1 0-10.95 0v4h-3v4.34a8.7 8.7 0 1 0 17.39 0v-4.34H6zm11.45 4.34A7.24 7.24 0 1 1 3 14.39v-2.9h14.46v2.9z" transform="translate(-1.5 -.59)"/></svg><svg id="svg--icon-security--white" data-name="Layer 6" viewBox="-2 -2 22.39 27.5" width="22.39" height="27.5" x="139" y="33.94"><defs><style>.bqcls-1{fill:#fff;stroke:#fff;stroke-miterlimit:10}</style></defs><title>icon-security--white</title><path class="bqcls-1" d="M10.2 19.46a2.17 2.17 0 0 0 2.17-2.15v-1.46a2.17 2.17 0 1 0-4.34 0v1.46a2.15 2.15 0 0 0 2.17 2.15zm-.73-3.61a.73.73 0 1 1 1.46 0v1.44a.73.73 0 1 1-1.46 0v-1.44zM6 10.06v-4a4 4 0 1 1 8.07 0V8.6h1.44V6.06a5.47 5.47 0 1 0-10.95 0v4h-3v4.34a8.7 8.7 0 1 0 17.39 0v-4.34H6zm11.45 4.34A7.24 7.24 0 1 1 3 14.39v-2.9h14.46v2.9z" transform="translate(-1 -.09)"/></svg><svg id="svg--icon-tick" data-name="Layer 1" viewBox="-2 -2 24.73 20.49" width="24.73" height="20.49" x="187.74" y="219.99"><defs><style>.brcls-1{fill:none;stroke:#22b573;stroke-miterlimit:10;stroke-width:3px}</style></defs><title>icon-tick</title><path class="brcls-1" d="M19.67 1.06L6.36 14.36l-5.3-5.3"/></svg><svg id="svg--icon-tooltip" data-name="Layer 2" viewBox="-2 -2 22.67 22.67" width="22.67" height="22.67" x="301.69" y="224.68"><defs><style>.bscls-1{fill:#e0e0e0}.bscls-2{fill:#fff}</style></defs><title>icon-tooltip</title><circle class="bscls-1" cx="9.33" cy="9.33" r="9.33"/><path class="bscls-2" d="M7 5.19a5.47 5.47 0 0 1 2.3-.42 3.38 3.38 0 0 1 2.27.74 2.5 2.5 0 0 1 .87 2 2.73 2.73 0 0 1-.27 1.22 2.43 2.43 0 0 1-.68.86 2.61 2.61 0 0 1-1.5.63v1.23h-2V9.18q2.31 0 2.31-1.41a1.17 1.17 0 0 0-.32-.86 1.3 1.3 0 0 0-1-.32 3.51 3.51 0 0 0-2 .65V5.19zm1 9.53a1.37 1.37 0 0 1 1.94-1.94 1.37 1.37 0 0 1-2 1.94z"/></svg><svg id="svg--icon-your-details" data-name="Layer 1" viewBox="-2 -2 22.91 25.41" width="22.91" height="25.41" x="301.69" y="105.25"><defs><style>.btcls-1{fill:none;stroke:#465460;stroke-miterlimit:10;stroke-width:1.63px}</style></defs><title>icon-your-details</title><path class="btcls-1" d="M9.57 2c3.29-.37 5.58 1.78 5.27 5.46a8.27 8.27 0 0 1-1 3.16c-.49.86-1.6 1.69-1.31 2.78.18.69 1.73 1.1 2.28 1.34 1.42.61 3.42 1.53 3.92 3a3.34 3.34 0 0 1 0 1.87c-.8 2-5.74 2.14-8.48 2.14a29 29 0 0 1-5-.32c-1.91-.35-4.22-1.1-3.53-3.58.28-1.15 1.65-1.97 2.9-2.65a17.65 17.65 0 0 1 1.85-.91c.6-.24 1.45-.45 1.52-1.23a2.21 2.21 0 0 0-.76-1.55A7.68 7.68 0 0 1 5.6 6.27 4.36 4.36 0 0 1 9.57 2z" transform="translate(-.74 -1.13)"/></svg><svg id="svg--icon-your-details--white" data-name="Layer 4" viewBox="-2 -2 22.91 25.41" width="22.91" height="25.41" x="301.69" y="79.84"><defs><style>.bucls-1{fill:none;stroke:#fff;stroke-miterlimit:10;stroke-width:1.63px}</style></defs><title>icon-your-details--white</title><path class="bucls-1" d="M9.57 2c3.29-.37 5.58 1.78 5.27 5.46a8.27 8.27 0 0 1-1 3.16c-.49.86-1.6 1.69-1.31 2.78.18.69 1.73 1.1 2.28 1.34 1.42.61 3.42 1.53 3.92 3a3.34 3.34 0 0 1 0 1.87c-.8 2-5.74 2.14-8.48 2.14a29 29 0 0 1-5-.32c-1.91-.35-4.22-1.1-3.53-3.58.28-1.15 1.65-1.97 2.9-2.65a17.65 17.65 0 0 1 1.85-.91c.6-.24 1.45-.45 1.52-1.23a2.21 2.21 0 0 0-.76-1.55A7.68 7.68 0 0 1 5.6 6.27 4.36 4.36 0 0 1 9.57 2z" transform="translate(-.74 -1.13)"/></svg><svg data-name="Layer 1" viewBox="-2 -2 25.38 25.75" width="25.38" height="25.75" id="svg--log-in" x="233.38" y="290.82"><title>log-in</title><g data-name="&lt;Group>" fill="#34404d"><path data-name="&lt;Path>" d="M14.67 11.81l-.44-.09c-.25.88-1.85 1.56-3.78 1.56s-3.42-.63-3.75-1.47a8.27 8.27 0 0 0-6.68 8.5c10.55 3.24 21.36 0 21.36 0a8.27 8.27 0 0 0-6.71-8.5zM15.61 5.74c0-4.22-2.2-5.74-4.92-5.74S5.77 1.52 5.77 5.74c0 3.17 2.2 5.74 4.92 5.74s4.92-2.57 4.92-5.74z"/></g></svg><svg data-name="Layer 1" viewBox="-2 -2 25.13 25.13" width="25.13" height="25.13" id="svg--search" x="283.89" y="290.82"><title>search</title><g data-name="&lt;Group>" fill="none" stroke="#34404d" stroke-miterlimit="10" stroke-width="3"><path data-name="&lt;Path>" d="M13.11 3.49a6.81 6.81 0 1 1-9.61 0 6.83 6.83 0 0 1 9.61 0zM13.24 13.22l6.83 6.85"/></g></svg><svg id="svg--vitality-health-logo" data-name="Layer 1" viewBox="-2 -2 162.69 33.94" width="162.69" height="33.94"><defs><style>.bxcls-1{fill:#868686}.bxcls-2{fill:#e72760}</style></defs><title>vitality-health-logo</title><path class="bxcls-1" d="M97.26 7.51h.87v20.34h-.87zM106.13 21.82l-.46-1.93h-2.38l-.48 1.93h-1.06l2.07-8.22h1.38l2 8.22h-1.09zm-1.61-7.25l-1 4.49h2.1zM110.1 21.82h-1.88V13.6h1.89c1.94 0 3.08 1.46 3.08 4.12s-1.19 4.1-3.09 4.1zm0-7.3h-.85v6.39h.85c1.16 0 2-1 2-3.18s-.84-3.21-2-3.21zM117.16 21.82h-1.35l-2-8.22h1.15l1.57 7 1.57-7h1.11zM120.18 21.82V13.6h1v8.22h-1zM124.53 22a2.72 2.72 0 0 1-2.09-1l.62-.75a1.92 1.92 0 0 0 1.47.74 1.2 1.2 0 0 0 1.2-1.36 1.87 1.87 0 0 0-1.34-1.63 2.45 2.45 0 0 1-1.66-2.33 2.15 2.15 0 0 1 2.18-2.33 2.27 2.27 0 0 1 1.85.79l-.63.74a1.43 1.43 0 0 0-1.18-.58 1.21 1.21 0 0 0-1.21 1.36 1.73 1.73 0 0 0 1.26 1.61 2.6 2.6 0 0 1 1.78 2.38 2.19 2.19 0 0 1-2.25 2.36zM128.14 21.82V13.6h3.46v.93h-2.45v2.59h2.29V18h-2.29v2.89h2.57v.94h-3.58zM136.46 21.82l-1.39-3.67h-1v3.67h-1V13.6h2.13a2 2 0 0 1 2.21 2.24A2 2 0 0 1 136 18l1.53 3.87h-1.11zm-1.41-7.34h-.94v2.86h1a1.28 1.28 0 0 0 1.31-1.45 1.23 1.23 0 0 0-1.37-1.41zM144.92 21.82V18h-2.87v3.8h-1v-8.2h1v3.5h2.87v-3.5h1v8.22h-1zM150.09 22c-1.81 0-2.43-1.36-2.43-3v-5.4h1v5.3c0 1.1.29 2.16 1.4 2.16s1.44-1.06 1.44-2.16v-5.3h1V19c.05 1.66-.59 3-2.41 3zM157.29 17.5a1.92 1.92 0 0 1 1.41 2.06 2.12 2.12 0 0 1-2.23 2.26h-2.22V13.6h2a2 2 0 0 1 2.19 2 1.81 1.81 0 0 1-1.13 1.85zm-1.18-3h-.87v2.65h.89a1.24 1.24 0 0 0 1.31-1.34 1.21 1.21 0 0 0-1.34-1.33zm.08 3.5h-1v3h1a1.32 1.32 0 0 0 1.42-1.45 1.41 1.41 0 0 0-1.42-1.55z"/><path class="bxcls-2" d="M12.1 14.66a2 2 0 0 0-1.57-1.92c-2.23 2.53-2.45 6.66-2.6 8.06a1.57 1.57 0 0 0 1.57 1.69c1.89-.46 1.64-1.92 1.64-1.92a.59.59 0 0 1-.19-.51c0-.38 1.16-5 1.16-5.4M37.2 12.89a1.67 1.67 0 0 0 1.27-1.23c0-.25-1-2.3-2.24-2.3a1 1 0 0 0-.89.84c0 .63.54 2.68 1.86 2.68M12.63 11.42a1.07 1.07 0 0 0 1.11-.82c0-.25-1-2.69-2.3-2.69a1 1 0 0 0-.89.84c0 .63.14 2.66 2.08 2.66"/><path class="bxcls-2" d="M16.61.23c-.53-.6-7.31-1.37-13.16 17.06a.13.13 0 0 1-.25 0C2.29 12.39 2.69 6.84 2.57 6A1.57 1.57 0 0 0 .4 4.44c-.85 1.76-.3 16 1.11 17.85.85.36 3.26.23 3.78-.34C5.29 22 8.68 4 16.61.23M53 13.39a.38.38 0 0 0-.28.22c-2 3.7-3.91 6.65-5.48 6.77a.54.54 0 0 1-.59-.53c-.19-1.42 1.14-4.94 1-5.94 0-.37-.22-.33-.46-.48a1.72 1.72 0 0 0-.25.26.14.14 0 0 1-.15 0 15.34 15.34 0 0 0-2.79-.64c.73-2 2.25-6.33 2.25-6.71 0-1-.7-1.28-1.89-1.6a39.61 39.61 0 0 0-3.22 8.31c-.62.56-1.56 0-1.74 1.14.47.49 1.34.9 1.34 1.28a24 24 0 0 0-.4 7c.29.14 1.66-1.33 1.66-1.77.38-4 1.38-5.37 1.38-5.37a14.4 14.4 0 0 0 2.5-.14c-.22.45-1.57 3.22-1.58 4.5 0 1.66.53 2.6 1.91 2.73a3.94 3.94 0 0 0 .88 0 6.58 6.58 0 0 0 4.12-2.34.12.12 0 0 1 .2.11c-2 7.24-5.94 9-7.59 9.44.06.5 2.91.36 4.9-1.32a16.09 16.09 0 0 0 4.69-7.27c.22-.74.43-1.5.59-2.29a23.2 23.2 0 0 0 .49-4.3A3.62 3.62 0 0 0 53 13.39M39.41 21.51h-.07c-2.12 0 .37-7.49-2.62-7.08a5.82 5.82 0 0 0-1.53.6.34.34 0 0 0-.13.13A29.88 29.88 0 0 1 31.34 20a.34.34 0 0 1-.58-.13C29.67 16.35 34.47 6 34.54 5.78c.36-1.16-1.23-1.72-2-1.8-1.74 2.46-4.65 10.26-4.36 16.46a.19.19 0 0 1-.12.19c-.49.2-2.26.85-2.05-.6.05-.38.89-2.61.89-3s-1.08-1.68-1.9-1.68c-.33 0-3.34 3.81-4.35 4.69a.34.34 0 0 1-.54-.12c-.55-1.2.78-4.51 4.55-5.76a9.73 9.73 0 0 0 1-1 .36.36 0 0 0 0-.3.6.6 0 0 0-.29-.3c-2.1-1-6.77-.83-7.57-.94.59-2.68 2.42-7 2.47-7.38.08-.64-.55-1.27-1.85-1.62a57.71 57.71 0 0 0-3.92 9c-.35.36-.87.22-1.2 1.25 0 .47.75 1 .75 1.4a32.41 32.41 0 0 0-.44 8.22c1 .06 2.15-1.58 2.22-2.05a45.33 45.33 0 0 1 1.31-6.28 32.34 32.34 0 0 0 4.15-.27v.07c-2 1.7-3.92 3.34-3.87 6.52a2.25 2.25 0 0 0 2.16 2A5.34 5.34 0 0 0 23 20.55a.22.22 0 0 1 .38.11 2.17 2.17 0 0 0 2.19 1.84 7.24 7.24 0 0 0 2.74-1.13.11.11 0 0 1 .13 0 2.81 2.81 0 0 0 1.67 1.11c1.95 0 3.92-2.84 5-4.59a.2.2 0 0 1 .37.06c.42 1.88.4 4.53 2.29 4.53a5.6 5.6 0 0 0 1.72-.33.34.34 0 0 0-.16-.66M62.56 21.71v-3.44h-1.91v3.44H58.8v-8.23h1.85v3.13h1.91v-3.13h1.85v8.23h-1.85zM65.44 21.71v-8.23h3.98v1.64h-2.2v1.62h2.02v1.53h-2.02v1.78h2.34v1.66h-4.12zM73.33 15.27l-.7 3.5H74zm1.23 6.44l-.34-1.5h-1.84l-.38 1.5h-1.81l2-8.23h2.33l2 8.23h-1.96zM77.26 21.71v-8.23h1.88v6.51h2.2v1.72h-4.08zM84.52 15.06v6.65H82.7v-6.65h-1.51v-1.58h4.84v1.58h-1.51zM90.78 13.48v3.13h-1.91v-3.13h-1.85v8.23h1.85v-3.44h1.91v3.44h1.85v-8.23h-1.85z"/></svg><svg data-name="Layer 1" viewBox="-2 -2 139 78.03" width="139" height="78.03" id="svg--vitality-logo" x="162.69"><title>vitality-logo</title><g data-name="Group" fill="#f41c5e"><path data-name="Path" d="M29.94 36.25a4.94 4.94 0 0 0-3.88-4.74C20.53 37.77 20 48 19.62 51.44c-.19 4.06 3.87 4.17 3.87 4.17 4.68-1.15 4-4.76 4-4.76a1.46 1.46 0 0 1-.46-1.25c.05-.94 2.91-12.4 2.91-13.35z"/><path data-name="Path 2" d="M92 31.87c1 0 3.13-1.66 3.13-3 0-.62-2.35-5.69-5.53-5.69a2.58 2.58 0 0 0-2.21 2.09c0 1.52 1.33 6.6 4.61 6.6z"/><path data-name="Path 3" d="M31.23 28.24c1 0 2.75-.65 2.75-2 0-.62-2.51-6.65-5.69-6.65a2.58 2.58 0 0 0-2.21 2.09c0 1.54.35 6.56 5.15 6.56z"/><path data-name="Path 4" d="M41.07.56C39.76-.92 23-2.81 8.54 42.77a.32.32 0 0 1-.61 0c-2.27-12.1-1.27-25.77-1.56-28C5.65 9.23 1 11 1 11c-2.1 4.34-.76 39.54 2.75 44.13 2.09.89 8.07.58 9.34-.84 0 0 8.38-44.51 27.98-53.73z"/><path data-name="Path 5" d="M131 33.12a.93.93 0 0 0-.69.54c-5.07 9.15-9.66 16.44-13.56 16.74a1.33 1.33 0 0 1-1.46-1.18v-.12c-.48-3.52 2.82-12.21 2.59-14.69-.09-.92-.55-.82-1.14-1.19a4.25 4.25 0 0 0-.62.65.34.34 0 0 1-.38.1 37.92 37.92 0 0 0-7-1.7c1.8-5 5.55-15.65 5.55-16.6 0-2.37-1.74-3.17-4.68-4-4.74 8.35-7.75 19.71-8 20.56-1.53 1.38-3.85.11-4.3 2.81 1.15 1.22 3.31 2.22 3.31 3.17S99 43 99.64 55.61c.83.32 4.24-3.32 4.35-4.41.94-9.78 3.42-13.29 3.42-13.29a35.61 35.61 0 0 0 6.19-.33.08.08 0 0 1 .09.12c-.55 1.12-3.88 8-3.9 11.14 0 4.11 1.31 6.43 4.73 6.74a9.78 9.78 0 0 0 2.18 0 16.29 16.29 0 0 0 10.2-5.8.29.29 0 0 1 .5.27c-5 17.9-14.7 22.37-18.78 23.35.14 1.25 7.19.89 12.11-3.28a39.79 39.79 0 0 0 11.6-18c.54-1.83 1.06-3.72 1.46-5.65A57.26 57.26 0 0 0 135 35.89c0-.6-3.3-2.77-4-2.77z"/><path data-name="Path 6" d="M97.47 53.19h-.18c-5.25 0 .92-18.52-6.48-17.52a14.4 14.4 0 0 0-3.81 1.5.84.84 0 0 0-.33.31 73.89 73.89 0 0 1-9.18 12 .85.85 0 0 1-1.43-.31c-2.7-8.69 9.17-34.27 9.34-34.83.9-2.88-3-4.25-5-4.46C76.11 16 68.9 35.25 69.62 50.6a.47.47 0 0 1-.29.46c-1.21.5-5.6 2.1-5.08-1.49.13-.94 2.21-6.45 2.21-7.4 0-.62-2.63-4.17-4.61-4.17-.85 0-8.26 9.41-10.77 11.61a.85.85 0 0 1-1.33-.29C48.43 46.3 51.7 38.11 61 35a24.13 24.13 0 0 0 2.39-2.37.88.88 0 0 0 .11-.73 1.47 1.47 0 0 0-.71-.74c-5.19-2.4-16.74-2.06-18.71-2.33 1.45-6.62 6-17.23 6.12-18.26.19-1.59-1.37-3.14-4.58-4A142.65 142.65 0 0 0 36 28.75c-.86.9-2.15.54-3 3.08 0 1.15 1.87 2.43 1.87 3.47s-1.77 6.57-1.09 20.34c2.56.15 5.32-3.9 5.5-5.08A112.08 112.08 0 0 1 42.51 35a80 80 0 0 0 10.25-.66.1.1 0 0 1 .08.18c-5 4.2-9.68 8.27-9.57 16.12 0 3.18 3.41 5 5.35 5 3.33 0 6.75-3 8.38-4.82a.55.55 0 0 1 1 .26 5.36 5.36 0 0 0 5.41 4.55c2.23 0 5.52-2.1 6.78-2.79a.26.26 0 0 1 .33.06c.84 1 2.53 2.74 4.14 2.74 4.82 0 9.71-7 12.43-11.34a.5.5 0 0 1 .91.16c1 4.64 1 11.19 5.67 11.19a13.87 13.87 0 0 0 4.25-.82.85.85 0 0 0-.45-1.64z"/></g></svg><svg data-name="Layer 1" viewBox="-2 -2 139 78.05" width="139" height="78.05" id="svg--vitality-logo--white" y="33.94"><title>vitality-logo</title><g data-name="&lt;Group>" fill="#fff"><path data-name="&lt;Path>" d="M29.94 36.25a4.94 4.94 0 0 0-3.88-4.74C20.53 37.77 20 48 19.62 51.44c-.19 4.06 3.87 4.17 3.87 4.17 4.68-1.15 4.05-4.76 4.05-4.76a1.46 1.46 0 0 1-.46-1.25c0-.94 2.86-12.4 2.86-13.35zM92 31.87c1 0 3.13-1.66 3.13-3 0-.62-2.35-5.69-5.53-5.69a2.58 2.58 0 0 0-2.21 2.09c0 1.52 1.33 6.6 4.61 6.6zM31.23 28.24c1 0 2.75-.65 2.75-2 0-.62-2.51-6.65-5.69-6.65a2.58 2.58 0 0 0-2.21 2.09c0 1.54.35 6.56 5.15 6.56z"/><path data-name="&lt;Path>" d="M41.07.56C39.76-.92 23-2.81 8.54 42.77a.32.32 0 0 1-.61 0c-2.27-12.1-1.27-25.81-1.56-28C5.65 9.23 1 11 1 11c-2.1 4.34-.76 39.54 2.75 44.13 2.09.89 8.07.58 9.34-.84 0 0 8.38-44.51 27.98-53.73zM131 33.12a.93.93 0 0 0-.69.54c-5.07 9.15-9.66 16.44-13.56 16.74a1.33 1.33 0 0 1-1.47-1.3c-.48-3.52 2.82-12.21 2.59-14.69-.09-.92-.55-.82-1.14-1.19a4.25 4.25 0 0 0-.62.65.34.34 0 0 1-.38.1 37.92 37.92 0 0 0-7-1.7c1.8-5.05 5.55-15.65 5.55-16.6 0-2.37-1.74-3.17-4.68-4-4.74 8.35-7.75 19.71-8 20.56-1.53 1.38-3.85.11-4.3 2.81 1.15 1.22 3.31 2.22 3.31 3.17S99 43 99.64 55.61c.83.32 4.24-3.32 4.35-4.41.94-9.78 3.42-13.29 3.42-13.29a35.61 35.61 0 0 0 6.19-.33.08.08 0 0 1 .09.12c-.55 1.12-3.88 8-3.9 11.14 0 4.11 1.31 6.43 4.73 6.74a9.78 9.78 0 0 0 2.18 0 16.29 16.29 0 0 0 10.2-5.8.29.29 0 0 1 .5.27c-5 17.9-14.7 22.37-18.78 23.35.14 1.25 7.19.89 12.11-3.28a39.79 39.79 0 0 0 11.6-18c.54-1.83 1.06-3.72 1.46-5.65A57.26 57.26 0 0 0 135 35.89c0-.6-3.3-2.77-4-2.77zM97.47 53.19h-.18c-5.25 0 .92-18.52-6.48-17.52a14.4 14.4 0 0 0-3.81 1.5.84.84 0 0 0-.33.31 73.89 73.89 0 0 1-9.18 12 .85.85 0 0 1-1.43-.31c-2.7-8.69 9.17-34.27 9.34-34.83.9-2.88-3-4.25-5-4.46-4.29 6.08-11.5 25.37-10.78 40.72a.47.47 0 0 1-.29.46c-1.21.5-5.6 2.1-5.08-1.49.13-.94 2.21-6.45 2.21-7.4 0-.62-2.63-4.17-4.61-4.17-.81 0-8.26 9.41-10.77 11.61a.85.85 0 0 1-1.33-.29C48.43 46.3 51.7 38.11 61 35a24.13 24.13 0 0 0 2.39-2.37.88.88 0 0 0 .11-.73 1.47 1.47 0 0 0-.71-.74c-5.19-2.4-16.74-2.06-18.71-2.33 1.45-6.62 6-17.23 6.12-18.26.19-1.59-1.37-3.14-4.58-4A142.65 142.65 0 0 0 36 28.75c-.86.9-2.15.54-3 3.08 0 1.15 1.87 2.43 1.87 3.47s-1.77 6.57-1.09 20.34c2.56.15 5.32-3.9 5.5-5.08A112.08 112.08 0 0 1 42.51 35a80 80 0 0 0 10.25-.66.1.1 0 0 1 .08.18c-5 4.2-9.68 8.27-9.57 16.12 0 3.18 3.41 5 5.35 5 3.33 0 6.75-3 8.38-4.82a.55.55 0 0 1 1 .26 5.36 5.36 0 0 0 5.41 4.55c2.23 0 5.52-2.1 6.78-2.79a.26.26 0 0 1 .33.06c.84 1 2.53 2.74 4.14 2.74 4.82 0 9.71-7 12.43-11.34a.5.5 0 0 1 .91.16c1 4.64 1 11.19 5.67 11.19a13.87 13.87 0 0 0 4.25-.82.85.85 0 0 0-.45-1.64z"/></g></svg><svg viewBox="-2 -2 26 26" width="26" height="26" id="twitter" x="52" y="290.82"><title>twitter</title><path data-name="&lt;Path>" d="M17.36 7.74v.42A9.34 9.34 0 0 1 3 16a6.93 6.93 0 0 0 .78 0 6.58 6.58 0 0 0 4.08-1.4 3.29 3.29 0 0 1-3.07-2.28 3.37 3.37 0 0 0 .62.06 3.31 3.31 0 0 0 .86-.12 3.29 3.29 0 0 1-2.63-3.15 3.28 3.28 0 0 0 1.49.41 3.29 3.29 0 0 1-1-4.38 9.32 9.32 0 0 0 6.77 3.43 3.29 3.29 0 0 1 5.59-3 6.55 6.55 0 0 0 2.08-.8 3.29 3.29 0 0 1-1.44 1.82A6.55 6.55 0 0 0 19 6a6.66 6.66 0 0 1-1.64 1.74z" fill="#666"/></svg><svg viewBox="-2 -2 26 26" width="26" height="26" id="twitter--footer" x="26" y="290.82"><title>twitter</title><path data-name="&lt;Path>" d="M17.36 7.74v.42A9.34 9.34 0 0 1 3 16a6.93 6.93 0 0 0 .78 0 6.58 6.58 0 0 0 4.08-1.4 3.29 3.29 0 0 1-3.07-2.28 3.37 3.37 0 0 0 .62.06 3.31 3.31 0 0 0 .86-.12 3.29 3.29 0 0 1-2.63-3.15 3.28 3.28 0 0 0 1.49.41 3.29 3.29 0 0 1-1-4.38 9.32 9.32 0 0 0 6.77 3.43 3.29 3.29 0 0 1 5.59-3 6.55 6.55 0 0 0 2.08-.8 3.29 3.29 0 0 1-1.44 1.82A6.55 6.55 0 0 0 19 6a6.66 6.66 0 0 1-1.64 1.74z" fill="#5bb6b1"/></svg><svg viewBox="-2 -2 26 26" width="26" height="26" id="youtube" x="130" y="290.82"><title>youtube</title><path data-name="&lt;Compound Path>" d="M21.14 6a2.65 2.65 0 0 0-2.27-2A70.58 70.58 0 0 0 11 3.68 70.6 70.6 0 0 0 3.14 4 2.65 2.65 0 0 0 .87 6a22.47 22.47 0 0 0-.37 5 22.46 22.46 0 0 0 .37 5 2.65 2.65 0 0 0 2.27 2 70.58 70.58 0 0 0 7.86.29 70.56 70.56 0 0 0 7.86-.29 2.65 2.65 0 0 0 2.27-2 22.48 22.48 0 0 0 .37-5 22.45 22.45 0 0 0-.36-5zM8.29 14.26V7.32L15 10.8l-6.71 3.46zm0 0" fill="#666" fill-rule="evenodd"/></svg><svg viewBox="-2 -2 26 26" width="26" height="26" id="youtube--footer" x="182" y="290.82"><title>youtube</title><path data-name="&lt;Compound Path>" d="M21.14 6a2.65 2.65 0 0 0-2.27-2A70.58 70.58 0 0 0 11 3.68 70.6 70.6 0 0 0 3.14 4 2.65 2.65 0 0 0 .87 6a22.47 22.47 0 0 0-.37 5 22.46 22.46 0 0 0 .37 5 2.65 2.65 0 0 0 2.27 2 70.58 70.58 0 0 0 7.86.29 70.56 70.56 0 0 0 7.86-.29 2.65 2.65 0 0 0 2.27-2 22.48 22.48 0 0 0 .37-5 22.45 22.45 0 0 0-.36-5zM8.29 14.26V7.32L15 10.8l-6.71 3.46zm0 0" fill="#5bb6b1" fill-rule="evenodd"/></svg></svg>