<svg id="Layer_1" xmlns="http://www.w3.org/2000/svg" viewBox="0 0 25.3 25.3"><style>.st0{fill:none;stroke:#5bb6b1;stroke-width:.7;stroke-miterlimit:10}</style><path class="st0" d="M22.6 18.6c0-.4-.2-.7-.4-1l-.2-.2-3.9-3c-.2-.2-.6-.4-1-.4-.3 0-.6.1-.8.2l-1 1.1c-.2.2-.4.3-.7.3-.3 0-.6-.2-.7-.4-1.5-1.1-2.8-2.4-3.9-3.9-.2-.2-.4-.5-.4-.7s.2-.5.3-.7L11 9c.2-.2.2-.5.2-.8 0-.4-.2-.7-.4-1l-3-3.9v-.2c-.2-.2-.7-.4-1-.4-1.8 0-4.2 2.1-4.2 4.7 0 .7.2 1.4.5 2.1 2.7 5.4 7.2 10 12.7 12.8.7.3 1.3.5 2.1.5 2.6-.1 4.7-2.4 4.7-4.2zm-4.7 3.2c-.6 0-1.2-.2-1.6-.4-.1 0-.1-.1-.2-.1C11 18.7 6.6 14.4 4 9.2c0-.1 0-.1-.1-.2-.2-.4-.3-1-.3-1.6 0-2.2 1.9-3.9 3.2-3.9.2 0 .2.1.3.2l.1.1v.1l3 3.9.1.1c.1.1.2.2.2.3 0 .1 0 .2-.1.2l-1 .9c-.4.4-.7.8-.7 1.3s.2.9.5 1.2v.1c1.2 1.6 2.5 2.9 4.1 4 .3.3.8.5 1.2.5.5 0 .9-.2 1.2-.5l.1-.1 1-1c.1-.1.2-.1.2-.1.2 0 .2.1.3.2l.1.1 3.9 3s.1 0 .1.1c.1 0 .1.1.1.1.1.1.2.2.2.3v.1c0 1.3-1.6 3.2-3.8 3.2z" id="Phone_1_x40_2x.png_9_"/></svg>