<svg data-name="Layer 1" xmlns="http://www.w3.org/2000/svg" viewBox="0 0 20 20"><title>icon-phone--dark</title><path d="M20 15.9a1.36 1.36 0 0 0-.4-1 1.34 1.34 0 0 0-.25-.15l-3.85-3a1.36 1.36 0 0 0-1-.4 1.34 1.34 0 0 0-.82.28l-1.03 1.09a.9.9 0 0 1-1.42-.08A17.36 17.36 0 0 1 7.35 8.8a.91.91 0 0 1-.06-1.45l1.06-1.08a1.34 1.34 0 0 0 .28-.82 1.36 1.36 0 0 0-.4-1L5.23.6a1.39 1.39 0 0 0-.17-.25 1.36 1.36 0 0 0-1-.4C2.24-.05-.03 2.09-.03 4.72a4.75 4.75 0 0 0 .46 2 28.88 28.88 0 0 0 12.74 12.83 4.75 4.75 0 0 0 2 .46c2.64 0 4.77-2.27 4.77-4.09z" fill="#666" data-name="Phone 1@2x.png"/></svg>