<svg id="instagram" xmlns="http://www.w3.org/2000/svg" viewBox="0 0 22 22"><title>instagram</title><path d="M14.7,10.8A3.76,3.76,0,0,1,11,14.5a3.76,3.76,0,0,1-3.7-3.7,5.07,5.07,0,0,1,.2-1.3H3V15a4,4,0,0,0,4,4h8a4,4,0,0,0,4-4V9.5H14.5A5.07,5.07,0,0,1,14.7,10.8Z" style="fill:#666"/><circle cx="11" cy="10.8" r="2.2" style="fill:#666"/><path d="M15,3H7.2V7.2H6.3V3.1a1.88,1.88,0,0,0-.8.2V7.2H4.6V3.8A3.89,3.89,0,0,0,3,7V8.2H8.4a3.62,3.62,0,0,1,5.12-.08L13.6,8.2H19V7A4,4,0,0,0,15,3Zm1.8,3.8a0.43,0.43,0,0,1-.4.4H15a0.37,0.37,0,0,1-.4-0.4V5.4A0.43,0.43,0,0,1,15,5h1.3a0.37,0.37,0,0,1,.4.4V6.8h0.1Z" style="fill:#666"/></svg>