<?xml version="1.0" encoding="utf-8"?><!DOCTYPE svg PUBLIC "-//W3C//DTD SVG 1.1//EN" "http://www.w3.org/Graphics/SVG/1.1/DTD/svg11.dtd"><svg width="310" height="303" viewBox="0 0 310 303" xmlns="http://www.w3.org/2000/svg" xmlns:xlink="http://www.w3.org/1999/xlink"><svg viewBox="-10 -10 42 42" width="42" height="42" id="facebook" x="168" y="218.05"><title>facebook</title><path data-name="&lt;Path>" d="M14.43 11h-2.25v8H8.86v-8H7.28V8.18h1.58V6.35A3.12 3.12 0 0 1 12.21 3h2.46v2.75h-1.78a.68.68 0 0 0-.7.77v1.66h2.53z" fill="#666"/></svg><svg viewBox="-10 -10 42 42" width="42" height="42" id="facebook--footer" x="126" y="218.05"><title>facebook</title><path data-name="&lt;Path>" d="M14.43 11h-2.25v8H8.86v-8H7.28V8.18h1.58V6.35A3.12 3.12 0 0 1 12.21 3h2.46v2.75h-1.78a.68.68 0 0 0-.7.77v1.66h2.53z" fill="#5bb6b1"/></svg><svg id="icon-mouse" viewBox="-10 -10 51.7 51.7" width="51.7" height="51.7" x="248" y="94.05"><style>.cst0{fill:#5bb6b1}</style><path class="cst0" d="M24.1 19.5L17.7 13c-2.6-2.6-6.8-2.8-9.6-.5-.3-.5-.5-1.3-.3-2 .3-1.1.7-1.4 2.3-2 2.6-.9 3.5-2.2 4-3.4.7-1.5.6-3.1 0-4.7 0-.3-.4-.5-.7-.4-.4.1-.5.5-.5.9.6 2.6.7 5.4-3.2 6.5-2.2.6-2.9 1.8-3.2 2.9-.3 1.1 0 2.3.7 3.2-2.4 2.8-2.2 7 .4 9.7l6.4 6.4c2.8 2.8 7.3 2.8 10.1 0s2.8-7.3 0-10.1zM8.5 22.2c-2.1-2.1-2.3-5.5-.4-7.8l4.5 4.6.9-.9-4.6-4.6c2.3-1.8 5.7-1.7 7.8.4l.5.5-8.3 8.3-.4-.5zm14.7 6.5c-2.3 2.3-6 2.3-8.3 0l-5.1-5.1 8.3-8.3 5.1 5.1c2.3 2.3 2.3 6 0 8.3zM19.5 25c-.5.5-.5 1.3 0 1.8s1.3.5 1.8 0 .5-1.3 0-1.8-1.3-.5-1.8 0z" id="cMouse_1_"/></svg><svg id="icon-phone" viewBox="-10 -10 45.3 45.3" width="45.3" height="45.3" x="248" y="145.75"><style>.dst0{fill:none;stroke:#5bb6b1;stroke-width:.7;stroke-miterlimit:10}</style><path class="dst0" d="M22.6 18.6c0-.4-.2-.7-.4-1l-.2-.2-3.9-3c-.2-.2-.6-.4-1-.4-.3 0-.6.1-.8.2l-1 1.1c-.2.2-.4.3-.7.3-.3 0-.6-.2-.7-.4-1.5-1.1-2.8-2.4-3.9-3.9-.2-.2-.4-.5-.4-.7s.2-.5.3-.7L11 9c.2-.2.2-.5.2-.8 0-.4-.2-.7-.4-1l-3-3.9v-.2c-.2-.2-.7-.4-1-.4-1.8 0-4.2 2.1-4.2 4.7 0 .7.2 1.4.5 2.1 2.7 5.4 7.2 10 12.7 12.8.7.3 1.3.5 2.1.5 2.6-.1 4.7-2.4 4.7-4.2zm-4.7 3.2c-.6 0-1.2-.2-1.6-.4-.1 0-.1-.1-.2-.1C11 18.7 6.6 14.4 4 9.2c0-.1 0-.1-.1-.2-.2-.4-.3-1-.3-1.6 0-2.2 1.9-3.9 3.2-3.9.2 0 .2.1.3.2l.1.1v.1l3 3.9.1.1c.1.1.2.2.2.3 0 .1 0 .2-.1.2l-1 .9c-.4.4-.7.8-.7 1.3s.2.9.5 1.2v.1c1.2 1.6 2.5 2.9 4.1 4 .3.3.8.5 1.2.5.5 0 .9-.2 1.2-.5l.1-.1 1-1c.1-.1.2-.1.2-.1.2 0 .2.1.3.2l.1.1 3.9 3s.1 0 .1.1c.1 0 .1.1.1.1.1.1.2.2.2.3v.1c0 1.3-1.6 3.2-3.8 3.2z" id="dPhone_1_x40_2x.png_9_"/></svg><svg data-name="Layer 1" viewBox="-10 -10 40 40" width="40" height="40" id="icon-phone--dark" x="207.01999999999998" y="260.05"><title>icon-phone--dark</title><path d="M20 15.9a1.36 1.36 0 0 0-.4-1 1.34 1.34 0 0 0-.25-.15l-3.85-3a1.36 1.36 0 0 0-1-.4 1.34 1.34 0 0 0-.82.28l-1.03 1.09a.9.9 0 0 1-1.42-.08A17.36 17.36 0 0 1 7.35 8.8a.91.91 0 0 1-.06-1.45l1.06-1.08a1.34 1.34 0 0 0 .28-.82 1.36 1.36 0 0 0-.4-1L5.23.6a1.39 1.39 0 0 0-.17-.25 1.36 1.36 0 0 0-1-.4C2.24-.05-.03 2.09-.03 4.72a4.75 4.75 0 0 0 .46 2 28.88 28.88 0 0 0 12.74 12.83 4.75 4.75 0 0 0 2 .46c2.64 0 4.77-2.27 4.77-4.09z" fill="#666" data-name="Phone 1@2x.png"/></svg><svg viewBox="-10 -10 42 42" width="42" height="42" id="instagram" x="252" y="218.05"><title>instagram</title><path d="M14.7 10.8a3.76 3.76 0 0 1-3.7 3.7 3.76 3.76 0 0 1-3.7-3.7 5.07 5.07 0 0 1 .2-1.3H3V15a4 4 0 0 0 4 4h8a4 4 0 0 0 4-4V9.5h-4.5a5.07 5.07 0 0 1 .2 1.3z" fill="#666"/><circle cx="11" cy="10.8" r="2.2" fill="#666"/><path d="M15 3H7.2v4.2h-.9V3.1a1.88 1.88 0 0 0-.8.2v3.9h-.9V3.8A3.89 3.89 0 0 0 3 7v1.2h5.4a3.62 3.62 0 0 1 5.12-.08l.08.08H19V7a4 4 0 0 0-4-4zm1.8 3.8a.43.43 0 0 1-.4.4H15a.37.37 0 0 1-.4-.4V5.4A.43.43 0 0 1 15 5h1.3a.37.37 0 0 1 .4.4v1.4h.1z" fill="#666"/></svg><svg viewBox="-10 -10 42 42" width="42" height="42" id="instagram--footer" y="218.05"><title>instagram</title><path d="M14.7 10.8a3.76 3.76 0 0 1-3.7 3.7 3.76 3.76 0 0 1-3.7-3.7 5.07 5.07 0 0 1 .2-1.3H3V15a4 4 0 0 0 4 4h8a4 4 0 0 0 4-4V9.5h-4.5a5.07 5.07 0 0 1 .2 1.3z" fill="#5bb6b1"/><circle cx="11" cy="10.8" r="2.2" fill="#5bb6b1"/><path d="M15 3H7.2v4.2h-.9V3.1a1.88 1.88 0 0 0-.8.2v3.9h-.9V3.8A3.89 3.89 0 0 0 3 7v1.2h5.4a3.62 3.62 0 0 1 5.12-.08l.08.08H19V7a4 4 0 0 0-4-4zm1.8 3.8a.43.43 0 0 1-.4.4H15a.37.37 0 0 1-.4-.4V5.4A.43.43 0 0 1 15 5h1.3a.37.37 0 0 1 .4.4v1.4h.1z" fill="#5bb6b1"/></svg><svg data-name="Layer 1" viewBox="-10 -10 41.38 41.75" width="41.38" height="41.75" id="log-in" x="83.38" y="260.05"><title>log-in</title><g data-name="&lt;Group>" fill="#34404d"><path data-name="&lt;Path>" d="M14.67 11.81l-.44-.09c-.25.88-1.85 1.56-3.78 1.56s-3.42-.63-3.75-1.47a8.27 8.27 0 0 0-6.68 8.5c10.55 3.24 21.36 0 21.36 0a8.27 8.27 0 0 0-6.71-8.5zM15.61 5.74c0-4.22-2.2-5.74-4.92-5.74S5.77 1.52 5.77 5.74c0 3.17 2.2 5.74 4.92 5.74s4.92-2.57 4.92-5.74z"/></g></svg><svg data-name="Layer 1" viewBox="-10 -10 41.13 41.13" width="41.13" height="41.13" id="search" x="165.89" y="260.05"><title>search</title><g data-name="&lt;Group>" fill="none" stroke="#34404d" stroke-miterlimit="10" stroke-width="3"><path data-name="&lt;Path>" d="M13.11 3.49a6.81 6.81 0 1 1-9.61 0 6.83 6.83 0 0 1 9.61 0zM13.24 13.22l6.83 6.85"/></g></svg><svg viewBox="-10 -10 124 124" width="124" height="124" id="svg--button-video-pause" y="94.05"><circle opacity=".15" fill="#FFF" cx="51.7" cy="51.7" r="51.7"/><g fill="#FFF"><path d="M30.9 29h14v45h-14zM57.9 29h14v45h-14z"/></g></svg><svg viewBox="-10 -10 124 124" width="124" height="124" id="svg--button-video-play" x="124" y="94.05"><g fill="#FFF"><circle opacity=".15" cx="52.1" cy="51.7" r="51.7"/><path d="M36 29.4V74l39.8-22.3z"/></g></svg><svg data-name="Layer 1" viewBox="-10 -10 41.38 41.75" width="41.38" height="41.75" id="svg--log-in" x="42" y="260.05"><title>log-in</title><g data-name="&lt;Group>" fill="#34404d"><path data-name="&lt;Path>" d="M14.67 11.81l-.44-.09c-.25.88-1.85 1.56-3.78 1.56s-3.42-.63-3.75-1.47a8.27 8.27 0 0 0-6.68 8.5c10.55 3.24 21.36 0 21.36 0a8.27 8.27 0 0 0-6.71-8.5zM15.61 5.74c0-4.22-2.2-5.74-4.92-5.74S5.77 1.52 5.77 5.74c0 3.17 2.2 5.74 4.92 5.74s4.92-2.57 4.92-5.74z"/></g></svg><svg data-name="Layer 1" viewBox="-10 -10 41.13 41.13" width="41.13" height="41.13" id="svg--search" x="124.75999999999999" y="260.05"><title>search</title><g data-name="&lt;Group>" fill="none" stroke="#34404d" stroke-miterlimit="10" stroke-width="3"><path data-name="&lt;Path>" d="M13.11 3.49a6.81 6.81 0 1 1-9.61 0 6.83 6.83 0 0 1 9.61 0zM13.24 13.22l6.83 6.85"/></g></svg><svg data-name="Layer 1" viewBox="-10 -10 155 94.03" width="155" height="94.03" id="svg--vitality-logo" x="155"><title>vitality-logo</title><g data-name="Group" fill="#f41c5e"><path data-name="Path" d="M29.94 36.25a4.94 4.94 0 0 0-3.88-4.74C20.53 37.77 20 48 19.62 51.44c-.19 4.06 3.87 4.17 3.87 4.17 4.68-1.15 4-4.76 4-4.76a1.46 1.46 0 0 1-.46-1.25c.05-.94 2.91-12.4 2.91-13.35z"/><path data-name="Path 2" d="M92 31.87c1 0 3.13-1.66 3.13-3 0-.62-2.35-5.69-5.53-5.69a2.58 2.58 0 0 0-2.21 2.09c0 1.52 1.33 6.6 4.61 6.6z"/><path data-name="Path 3" d="M31.23 28.24c1 0 2.75-.65 2.75-2 0-.62-2.51-6.65-5.69-6.65a2.58 2.58 0 0 0-2.21 2.09c0 1.54.35 6.56 5.15 6.56z"/><path data-name="Path 4" d="M41.07.56C39.76-.92 23-2.81 8.54 42.77a.32.32 0 0 1-.61 0c-2.27-12.1-1.27-25.77-1.56-28C5.65 9.23 1 11 1 11c-2.1 4.34-.76 39.54 2.75 44.13 2.09.89 8.07.58 9.34-.84 0 0 8.38-44.51 27.98-53.73z"/><path data-name="Path 5" d="M131 33.12a.93.93 0 0 0-.69.54c-5.07 9.15-9.66 16.44-13.56 16.74a1.33 1.33 0 0 1-1.46-1.18v-.12c-.48-3.52 2.82-12.21 2.59-14.69-.09-.92-.55-.82-1.14-1.19a4.25 4.25 0 0 0-.62.65.34.34 0 0 1-.38.1 37.92 37.92 0 0 0-7-1.7c1.8-5 5.55-15.65 5.55-16.6 0-2.37-1.74-3.17-4.68-4-4.74 8.35-7.75 19.71-8 20.56-1.53 1.38-3.85.11-4.3 2.81 1.15 1.22 3.31 2.22 3.31 3.17S99 43 99.64 55.61c.83.32 4.24-3.32 4.35-4.41.94-9.78 3.42-13.29 3.42-13.29a35.61 35.61 0 0 0 6.19-.33.08.08 0 0 1 .09.12c-.55 1.12-3.88 8-3.9 11.14 0 4.11 1.31 6.43 4.73 6.74a9.78 9.78 0 0 0 2.18 0 16.29 16.29 0 0 0 10.2-5.8.29.29 0 0 1 .5.27c-5 17.9-14.7 22.37-18.78 23.35.14 1.25 7.19.89 12.11-3.28a39.79 39.79 0 0 0 11.6-18c.54-1.83 1.06-3.72 1.46-5.65A57.26 57.26 0 0 0 135 35.89c0-.6-3.3-2.77-4-2.77z"/><path data-name="Path 6" d="M97.47 53.19h-.18c-5.25 0 .92-18.52-6.48-17.52a14.4 14.4 0 0 0-3.81 1.5.84.84 0 0 0-.33.31 73.89 73.89 0 0 1-9.18 12 .85.85 0 0 1-1.43-.31c-2.7-8.69 9.17-34.27 9.34-34.83.9-2.88-3-4.25-5-4.46C76.11 16 68.9 35.25 69.62 50.6a.47.47 0 0 1-.29.46c-1.21.5-5.6 2.1-5.08-1.49.13-.94 2.21-6.45 2.21-7.4 0-.62-2.63-4.17-4.61-4.17-.85 0-8.26 9.41-10.77 11.61a.85.85 0 0 1-1.33-.29C48.43 46.3 51.7 38.11 61 35a24.13 24.13 0 0 0 2.39-2.37.88.88 0 0 0 .11-.73 1.47 1.47 0 0 0-.71-.74c-5.19-2.4-16.74-2.06-18.71-2.33 1.45-6.62 6-17.23 6.12-18.26.19-1.59-1.37-3.14-4.58-4A142.65 142.65 0 0 0 36 28.75c-.86.9-2.15.54-3 3.08 0 1.15 1.87 2.43 1.87 3.47s-1.77 6.57-1.09 20.34c2.56.15 5.32-3.9 5.5-5.08A112.08 112.08 0 0 1 42.51 35a80 80 0 0 0 10.25-.66.1.1 0 0 1 .08.18c-5 4.2-9.68 8.27-9.57 16.12 0 3.18 3.41 5 5.35 5 3.33 0 6.75-3 8.38-4.82a.55.55 0 0 1 1 .26 5.36 5.36 0 0 0 5.41 4.55c2.23 0 5.52-2.1 6.78-2.79a.26.26 0 0 1 .33.06c.84 1 2.53 2.74 4.14 2.74 4.82 0 9.71-7 12.43-11.34a.5.5 0 0 1 .91.16c1 4.64 1 11.19 5.67 11.19a13.87 13.87 0 0 0 4.25-.82.85.85 0 0 0-.45-1.64z"/></g></svg><svg data-name="Layer 1" viewBox="-10 -10 155 94.05" width="155" height="94.05" id="svg--vitality-logo--white"><title>vitality-logo</title><g data-name="&lt;Group>" fill="#fff"><path data-name="&lt;Path>" d="M29.94 36.25a4.94 4.94 0 0 0-3.88-4.74C20.53 37.77 20 48 19.62 51.44c-.19 4.06 3.87 4.17 3.87 4.17 4.68-1.15 4.05-4.76 4.05-4.76a1.46 1.46 0 0 1-.46-1.25c0-.94 2.86-12.4 2.86-13.35zM92 31.87c1 0 3.13-1.66 3.13-3 0-.62-2.35-5.69-5.53-5.69a2.58 2.58 0 0 0-2.21 2.09c0 1.52 1.33 6.6 4.61 6.6zM31.23 28.24c1 0 2.75-.65 2.75-2 0-.62-2.51-6.65-5.69-6.65a2.58 2.58 0 0 0-2.21 2.09c0 1.54.35 6.56 5.15 6.56z"/><path data-name="&lt;Path>" d="M41.07.56C39.76-.92 23-2.81 8.54 42.77a.32.32 0 0 1-.61 0c-2.27-12.1-1.27-25.81-1.56-28C5.65 9.23 1 11 1 11c-2.1 4.34-.76 39.54 2.75 44.13 2.09.89 8.07.58 9.34-.84 0 0 8.38-44.51 27.98-53.73zM131 33.12a.93.93 0 0 0-.69.54c-5.07 9.15-9.66 16.44-13.56 16.74a1.33 1.33 0 0 1-1.47-1.3c-.48-3.52 2.82-12.21 2.59-14.69-.09-.92-.55-.82-1.14-1.19a4.25 4.25 0 0 0-.62.65.34.34 0 0 1-.38.1 37.92 37.92 0 0 0-7-1.7c1.8-5.05 5.55-15.65 5.55-16.6 0-2.37-1.74-3.17-4.68-4-4.74 8.35-7.75 19.71-8 20.56-1.53 1.38-3.85.11-4.3 2.81 1.15 1.22 3.31 2.22 3.31 3.17S99 43 99.64 55.61c.83.32 4.24-3.32 4.35-4.41.94-9.78 3.42-13.29 3.42-13.29a35.61 35.61 0 0 0 6.19-.33.08.08 0 0 1 .09.12c-.55 1.12-3.88 8-3.9 11.14 0 4.11 1.31 6.43 4.73 6.74a9.78 9.78 0 0 0 2.18 0 16.29 16.29 0 0 0 10.2-5.8.29.29 0 0 1 .5.27c-5 17.9-14.7 22.37-18.78 23.35.14 1.25 7.19.89 12.11-3.28a39.79 39.79 0 0 0 11.6-18c.54-1.83 1.06-3.72 1.46-5.65A57.26 57.26 0 0 0 135 35.89c0-.6-3.3-2.77-4-2.77zM97.47 53.19h-.18c-5.25 0 .92-18.52-6.48-17.52a14.4 14.4 0 0 0-3.81 1.5.84.84 0 0 0-.33.31 73.89 73.89 0 0 1-9.18 12 .85.85 0 0 1-1.43-.31c-2.7-8.69 9.17-34.27 9.34-34.83.9-2.88-3-4.25-5-4.46-4.29 6.08-11.5 25.37-10.78 40.72a.47.47 0 0 1-.29.46c-1.21.5-5.6 2.1-5.08-1.49.13-.94 2.21-6.45 2.21-7.4 0-.62-2.63-4.17-4.61-4.17-.81 0-8.26 9.41-10.77 11.61a.85.85 0 0 1-1.33-.29C48.43 46.3 51.7 38.11 61 35a24.13 24.13 0 0 0 2.39-2.37.88.88 0 0 0 .11-.73 1.47 1.47 0 0 0-.71-.74c-5.19-2.4-16.74-2.06-18.71-2.33 1.45-6.62 6-17.23 6.12-18.26.19-1.59-1.37-3.14-4.58-4A142.65 142.65 0 0 0 36 28.75c-.86.9-2.15.54-3 3.08 0 1.15 1.87 2.43 1.87 3.47s-1.77 6.57-1.09 20.34c2.56.15 5.32-3.9 5.5-5.08A112.08 112.08 0 0 1 42.51 35a80 80 0 0 0 10.25-.66.1.1 0 0 1 .08.18c-5 4.2-9.68 8.27-9.57 16.12 0 3.18 3.41 5 5.35 5 3.33 0 6.75-3 8.38-4.82a.55.55 0 0 1 1 .26 5.36 5.36 0 0 0 5.41 4.55c2.23 0 5.52-2.1 6.78-2.79a.26.26 0 0 1 .33.06c.84 1 2.53 2.74 4.14 2.74 4.82 0 9.71-7 12.43-11.34a.5.5 0 0 1 .91.16c1 4.64 1 11.19 5.67 11.19a13.87 13.87 0 0 0 4.25-.82.85.85 0 0 0-.45-1.64z"/></g></svg><svg viewBox="-10 -10 42 42" width="42" height="42" id="twitter" x="84" y="218.05"><title>twitter</title><path data-name="&lt;Path>" d="M17.36 7.74v.42A9.34 9.34 0 0 1 3 16a6.93 6.93 0 0 0 .78 0 6.58 6.58 0 0 0 4.08-1.4 3.29 3.29 0 0 1-3.07-2.28 3.37 3.37 0 0 0 .62.06 3.31 3.31 0 0 0 .86-.12 3.29 3.29 0 0 1-2.63-3.15 3.28 3.28 0 0 0 1.49.41 3.29 3.29 0 0 1-1-4.38 9.32 9.32 0 0 0 6.77 3.43 3.29 3.29 0 0 1 5.59-3 6.55 6.55 0 0 0 2.08-.8 3.29 3.29 0 0 1-1.44 1.82A6.55 6.55 0 0 0 19 6a6.66 6.66 0 0 1-1.64 1.74z" fill="#666"/></svg><svg viewBox="-10 -10 42 42" width="42" height="42" id="twitter--footer" x="42" y="218.05"><title>twitter</title><path data-name="&lt;Path>" d="M17.36 7.74v.42A9.34 9.34 0 0 1 3 16a6.93 6.93 0 0 0 .78 0 6.58 6.58 0 0 0 4.08-1.4 3.29 3.29 0 0 1-3.07-2.28 3.37 3.37 0 0 0 .62.06 3.31 3.31 0 0 0 .86-.12 3.29 3.29 0 0 1-2.63-3.15 3.28 3.28 0 0 0 1.49.41 3.29 3.29 0 0 1-1-4.38 9.32 9.32 0 0 0 6.77 3.43 3.29 3.29 0 0 1 5.59-3 6.55 6.55 0 0 0 2.08-.8 3.29 3.29 0 0 1-1.44 1.82A6.55 6.55 0 0 0 19 6a6.66 6.66 0 0 1-1.64 1.74z" fill="#5bb6b1"/></svg><svg viewBox="-10 -10 42 42" width="42" height="42" id="youtube" x="210" y="218.05"><title>youtube</title><path data-name="&lt;Compound Path>" d="M21.14 6a2.65 2.65 0 0 0-2.27-2A70.58 70.58 0 0 0 11 3.68 70.6 70.6 0 0 0 3.14 4 2.65 2.65 0 0 0 .87 6a22.47 22.47 0 0 0-.37 5 22.46 22.46 0 0 0 .37 5 2.65 2.65 0 0 0 2.27 2 70.58 70.58 0 0 0 7.86.29 70.56 70.56 0 0 0 7.86-.29 2.65 2.65 0 0 0 2.27-2 22.48 22.48 0 0 0 .37-5 22.45 22.45 0 0 0-.36-5zM8.29 14.26V7.32L15 10.8l-6.71 3.46zm0 0" fill="#666" fill-rule="evenodd"/></svg><svg viewBox="-10 -10 42 42" width="42" height="42" id="youtube--footer" y="260.05"><title>youtube</title><path data-name="&lt;Compound Path>" d="M21.14 6a2.65 2.65 0 0 0-2.27-2A70.58 70.58 0 0 0 11 3.68 70.6 70.6 0 0 0 3.14 4 2.65 2.65 0 0 0 .87 6a22.47 22.47 0 0 0-.37 5 22.46 22.46 0 0 0 .37 5 2.65 2.65 0 0 0 2.27 2 70.58 70.58 0 0 0 7.86.29 70.56 70.56 0 0 0 7.86-.29 2.65 2.65 0 0 0 2.27-2 22.48 22.48 0 0 0 .37-5 22.45 22.45 0 0 0-.36-5zM8.29 14.26V7.32L15 10.8l-6.71 3.46zm0 0" fill="#5bb6b1" fill-rule="evenodd"/></svg></svg>