<?xml version="1.0" encoding="utf-8"?><svg width="181" height="176" viewBox="0 0 181 176" xmlns="http://www.w3.org/2000/svg" xmlns:xlink="http://www.w3.org/1999/xlink"><svg viewBox="-10 -10 42 42" width="42" height="42" id="facebook" x="42" y="51.7"><title>facebook</title><path data-name="&lt;Path>" d="M14.43 11h-2.25v8H8.86v-8H7.28V8.18h1.58V6.35A3.12 3.12 0 0 1 12.21 3h2.46v2.75h-1.78a.68.68 0 0 0-.7.77v1.66h2.53z" fill="#666"/></svg><svg viewBox="-10 -10 42 42" width="42" height="42" id="facebook--footer" y="93.7"><title>facebook</title><path data-name="&lt;Path>" d="M14.43 11h-2.25v8H8.86v-8H7.28V8.18h1.58V6.35A3.12 3.12 0 0 1 12.21 3h2.46v2.75h-1.78a.68.68 0 0 0-.7.77v1.66h2.53z" fill="#5bb6b1"/></svg><svg id="icon-mouse" viewBox="-10 -10 51.7 51.7" width="51.7" height="51.7"><style>.cst0{fill:#5bb6b1}</style><path class="cst0" d="M24.1 19.5L17.7 13c-2.6-2.6-6.8-2.8-9.6-.5-.3-.5-.5-1.3-.3-2 .3-1.1.7-1.4 2.3-2 2.6-.9 3.5-2.2 4-3.4.7-1.5.6-3.1 0-4.7 0-.3-.4-.5-.7-.4-.4.1-.5.5-.5.9.6 2.6.7 5.4-3.2 6.5-2.2.6-2.9 1.8-3.2 2.9-.3 1.1 0 2.3.7 3.2-2.4 2.8-2.2 7 .4 9.7l6.4 6.4c2.8 2.8 7.3 2.8 10.1 0s2.8-7.3 0-10.1zM8.5 22.2c-2.1-2.1-2.3-5.5-.4-7.8l4.5 4.6.9-.9-4.6-4.6c2.3-1.8 5.7-1.7 7.8.4l.5.5-8.3 8.3-.4-.5zm14.7 6.5c-2.3 2.3-6 2.3-8.3 0l-5.1-5.1 8.3-8.3 5.1 5.1c2.3 2.3 2.3 6 0 8.3zM19.5 25c-.5.5-.5 1.3 0 1.8s1.3.5 1.8 0 .5-1.3 0-1.8-1.3-.5-1.8 0z" id="cMouse_1_"/></svg><svg id="icon-phone" viewBox="-10 -10 45.3 45.3" width="45.3" height="45.3" x="51.7"><style>.dst0{fill:none;stroke:#5bb6b1;stroke-width:.7;stroke-miterlimit:10}</style><path class="dst0" d="M22.6 18.6c0-.4-.2-.7-.4-1l-.2-.2-3.9-3c-.2-.2-.6-.4-1-.4-.3 0-.6.1-.8.2l-1 1.1c-.2.2-.4.3-.7.3-.3 0-.6-.2-.7-.4-1.5-1.1-2.8-2.4-3.9-3.9-.2-.2-.4-.5-.4-.7s.2-.5.3-.7L11 9c.2-.2.2-.5.2-.8 0-.4-.2-.7-.4-1l-3-3.9v-.2c-.2-.2-.7-.4-1-.4-1.8 0-4.2 2.1-4.2 4.7 0 .7.2 1.4.5 2.1 2.7 5.4 7.2 10 12.7 12.8.7.3 1.3.5 2.1.5 2.6-.1 4.7-2.4 4.7-4.2zm-4.7 3.2c-.6 0-1.2-.2-1.6-.4-.1 0-.1-.1-.2-.1C11 18.7 6.6 14.4 4 9.2c0-.1 0-.1-.1-.2-.2-.4-.3-1-.3-1.6 0-2.2 1.9-3.9 3.2-3.9.2 0 .2.1.3.2l.1.1v.1l3 3.9.1.1c.1.1.2.2.2.3 0 .1 0 .2-.1.2l-1 .9c-.4.4-.7.8-.7 1.3s.2.9.5 1.2v.1c1.2 1.6 2.5 2.9 4.1 4 .3.3.8.5 1.2.5.5 0 .9-.2 1.2-.5l.1-.1 1-1c.1-.1.2-.1.2-.1.2 0 .2.1.3.2l.1.1 3.9 3s.1 0 .1.1c.1 0 .1.1.1.1.1.1.2.2.2.3v.1c0 1.3-1.6 3.2-3.8 3.2z" id="dPhone_1_x40_2x.png_9_"/></svg><svg data-name="Layer 1" viewBox="-10 -10 40 40" width="40" height="40" id="icon-phone--dark" y="135.7"><title>icon-phone--dark</title><path d="M20 15.9a1.36 1.36 0 0 0-.4-1 1.34 1.34 0 0 0-.25-.15l-3.85-3a1.36 1.36 0 0 0-1-.4 1.34 1.34 0 0 0-.82.28l-1.03 1.09a.9.9 0 0 1-1.42-.08A17.36 17.36 0 0 1 7.35 8.8a.91.91 0 0 1-.06-1.45l1.06-1.08a1.34 1.34 0 0 0 .28-.82 1.36 1.36 0 0 0-.4-1L5.23.6a1.39 1.39 0 0 0-.17-.25 1.36 1.36 0 0 0-1-.4C2.24-.05-.03 2.09-.03 4.72a4.75 4.75 0 0 0 .46 2 28.88 28.88 0 0 0 12.74 12.83 4.75 4.75 0 0 0 2 .46c2.64 0 4.77-2.27 4.77-4.09z" fill="#666" data-name="Phone 1@2x.png"/></svg><svg viewBox="-10 -10 42 42" width="42" height="42" id="instagram" x="97" y="42"><title>instagram</title><path d="M14.7 10.8a3.76 3.76 0 0 1-3.7 3.7 3.76 3.76 0 0 1-3.7-3.7 5.07 5.07 0 0 1 .2-1.3H3V15a4 4 0 0 0 4 4h8a4 4 0 0 0 4-4V9.5h-4.5a5.07 5.07 0 0 1 .2 1.3z" fill="#666"/><circle cx="11" cy="10.8" r="2.2" fill="#666"/><path d="M15 3H7.2v4.2h-.9V3.1a1.88 1.88 0 0 0-.8.2v3.9h-.9V3.8A3.89 3.89 0 0 0 3 7v1.2h5.4a3.62 3.62 0 0 1 5.12-.08l.08.08H19V7a4 4 0 0 0-4-4zm1.8 3.8a.43.43 0 0 1-.4.4H15a.37.37 0 0 1-.4-.4V5.4A.43.43 0 0 1 15 5h1.3a.37.37 0 0 1 .4.4v1.4h.1z" fill="#666"/></svg><svg viewBox="-10 -10 42 42" width="42" height="42" id="instagram--footer" y="51.7"><title>instagram</title><path d="M14.7 10.8a3.76 3.76 0 0 1-3.7 3.7 3.76 3.76 0 0 1-3.7-3.7 5.07 5.07 0 0 1 .2-1.3H3V15a4 4 0 0 0 4 4h8a4 4 0 0 0 4-4V9.5h-4.5a5.07 5.07 0 0 1 .2 1.3z" fill="#5bb6b1"/><circle cx="11" cy="10.8" r="2.2" fill="#5bb6b1"/><path d="M15 3H7.2v4.2h-.9V3.1a1.88 1.88 0 0 0-.8.2v3.9h-.9V3.8A3.89 3.89 0 0 0 3 7v1.2h5.4a3.62 3.62 0 0 1 5.12-.08l.08.08H19V7a4 4 0 0 0-4-4zm1.8 3.8a.43.43 0 0 1-.4.4H15a.37.37 0 0 1-.4-.4V5.4A.43.43 0 0 1 15 5h1.3a.37.37 0 0 1 .4.4v1.4h.1z" fill="#5bb6b1"/></svg><svg data-name="Layer 1" viewBox="-10 -10 41.38 41.75" width="41.38" height="41.75" id="log-in" x="139" y="42"><title>log-in</title><g data-name="&lt;Group>" fill="#34404d"><path data-name="&lt;Path>" d="M14.67 11.81l-.44-.09c-.25.88-1.85 1.56-3.78 1.56s-3.42-.63-3.75-1.47a8.27 8.27 0 0 0-6.68 8.5c10.55 3.24 21.36 0 21.36 0a8.27 8.27 0 0 0-6.71-8.5zM15.61 5.74c0-4.22-2.2-5.74-4.92-5.74S5.77 1.52 5.77 5.74c0 3.17 2.2 5.74 4.92 5.74s4.92-2.57 4.92-5.74z"/></g></svg><svg data-name="Layer 1" viewBox="-10 -10 41.13 41.13" width="41.13" height="41.13" id="search" x="139" y="83.75"><title>search</title><g data-name="&lt;Group>" fill="none" stroke="#34404d" stroke-miterlimit="10" stroke-width="3"><path data-name="&lt;Path>" d="M13.11 3.49a6.81 6.81 0 1 1-9.61 0 6.83 6.83 0 0 1 9.61 0zM13.24 13.22l6.83 6.85"/></g></svg><svg viewBox="-10 -10 42 42" width="42" height="42" id="twitter" x="84" y="93.7"><title>twitter</title><path data-name="&lt;Path>" d="M17.36 7.74v.42A9.34 9.34 0 0 1 3 16a6.93 6.93 0 0 0 .78 0 6.58 6.58 0 0 0 4.08-1.4 3.29 3.29 0 0 1-3.07-2.28 3.37 3.37 0 0 0 .62.06 3.31 3.31 0 0 0 .86-.12 3.29 3.29 0 0 1-2.63-3.15 3.28 3.28 0 0 0 1.49.41 3.29 3.29 0 0 1-1-4.38 9.32 9.32 0 0 0 6.77 3.43 3.29 3.29 0 0 1 5.59-3 6.55 6.55 0 0 0 2.08-.8 3.29 3.29 0 0 1-1.44 1.82A6.55 6.55 0 0 0 19 6a6.66 6.66 0 0 1-1.64 1.74z" fill="#666"/></svg><svg viewBox="-10 -10 42 42" width="42" height="42" id="twitter--footer" x="42" y="93.7"><title>twitter</title><path data-name="&lt;Path>" d="M17.36 7.74v.42A9.34 9.34 0 0 1 3 16a6.93 6.93 0 0 0 .78 0 6.58 6.58 0 0 0 4.08-1.4 3.29 3.29 0 0 1-3.07-2.28 3.37 3.37 0 0 0 .62.06 3.31 3.31 0 0 0 .86-.12 3.29 3.29 0 0 1-2.63-3.15 3.28 3.28 0 0 0 1.49.41 3.29 3.29 0 0 1-1-4.38 9.32 9.32 0 0 0 6.77 3.43 3.29 3.29 0 0 1 5.59-3 6.55 6.55 0 0 0 2.08-.8 3.29 3.29 0 0 1-1.44 1.82A6.55 6.55 0 0 0 19 6a6.66 6.66 0 0 1-1.64 1.74z" fill="#5bb6b1"/></svg><svg viewBox="-10 -10 42 42" width="42" height="42" id="youtube" x="97"><title>youtube</title><path data-name="&lt;Compound Path>" d="M21.14 6a2.65 2.65 0 0 0-2.27-2A70.58 70.58 0 0 0 11 3.68 70.6 70.6 0 0 0 3.14 4 2.65 2.65 0 0 0 .87 6a22.47 22.47 0 0 0-.37 5 22.46 22.46 0 0 0 .37 5 2.65 2.65 0 0 0 2.27 2 70.58 70.58 0 0 0 7.86.29 70.56 70.56 0 0 0 7.86-.29 2.65 2.65 0 0 0 2.27-2 22.48 22.48 0 0 0 .37-5 22.45 22.45 0 0 0-.36-5zM8.29 14.26V7.32L15 10.8l-6.71 3.46zm0 0" fill="#666" fill-rule="evenodd"/></svg><svg viewBox="-10 -10 42 42" width="42" height="42" id="youtube--footer" x="139"><title>youtube</title><path data-name="&lt;Compound Path>" d="M21.14 6a2.65 2.65 0 0 0-2.27-2A70.58 70.58 0 0 0 11 3.68 70.6 70.6 0 0 0 3.14 4 2.65 2.65 0 0 0 .87 6a22.47 22.47 0 0 0-.37 5 22.46 22.46 0 0 0 .37 5 2.65 2.65 0 0 0 2.27 2 70.58 70.58 0 0 0 7.86.29 70.56 70.56 0 0 0 7.86-.29 2.65 2.65 0 0 0 2.27-2 22.48 22.48 0 0 0 .37-5 22.45 22.45 0 0 0-.36-5zM8.29 14.26V7.32L15 10.8l-6.71 3.46zm0 0" fill="#5bb6b1" fill-rule="evenodd"/></svg></svg>